<?xml version="1.0" encoding="utf-8"?>
<!-- Generator: Adobe Illustrator 26.3.1, SVG Export Plug-In . SVG Version: 6.00 Build 0)  -->
<svg version="1.1" id="Ebene_1" xmlns="http://www.w3.org/2000/svg" xmlns:xlink="http://www.w3.org/1999/xlink" x="0px" y="0px"
	 viewBox="0 0 50 50" style="enable-background:new 0 0 50 50;" xml:space="preserve">
<path d="M24.4,32.6l5.1-5.1l5.1,5.1l2.5-2.5L32,25l5.1-5.1l-2.5-2.5l-5.1,5.1l-5.1-5.1l-2.5,2.5l5.1,5.1l-5.1,5.1L24.4,32.6z
	 M18.6,40.3c-0.6,0-1.2-0.1-1.7-0.4c-0.5-0.3-1-0.6-1.4-1.1L5.2,25l10.3-13.8c0.4-0.5,0.9-0.9,1.4-1.1c0.5-0.3,1.1-0.4,1.7-0.4h22.3
	c1.1,0,2,0.4,2.7,1.1c0.7,0.7,1.1,1.6,1.1,2.7v22.9c0,1.1-0.4,1.9-1.1,2.7c-0.7,0.7-1.6,1.1-2.7,1.1H18.6z M10,25l8.6,11.5h22.3
	V13.5H18.6L10,25z"/>
</svg>
