<?xml version="1.0" encoding="utf-8"?>
<!-- Generator: Adobe Illustrator 26.3.1, SVG Export Plug-In . SVG Version: 6.00 Build 0)  -->
<svg version="1.1" id="Ebene_1" xmlns="http://www.w3.org/2000/svg" xmlns:xlink="http://www.w3.org/1999/xlink" x="0px" y="0px"
	 viewBox="0 0 50 50" style="enable-background:new 0 0 50 50;" xml:space="preserve">
<path d="M23,40.9V26.1l-12.4-7.2v14.7L23,40.9z M27,40.9l12.4-7.1V19L27,26.1V40.9z M25,22.7l12.8-7.4L24.9,7.9l-12.8,7.4L25,22.7z
	 M8.6,37.1c-0.6-0.4-1.1-0.8-1.4-1.4c-0.3-0.6-0.5-1.2-0.5-2V16.2c0-0.7,0.2-1.4,0.5-2c0.3-0.6,0.8-1.1,1.4-1.4L23,4.6
	C23.6,4.2,24.3,4,25,4s1.4,0.2,2,0.5l14.4,8.3c0.6,0.4,1.1,0.8,1.4,1.4c0.3,0.6,0.5,1.2,0.5,2v17.5c0,0.7-0.2,1.4-0.5,2
	c-0.3,0.6-0.8,1.1-1.4,1.4L27,45.4c-0.6,0.4-1.3,0.5-2,0.5c-0.7,0-1.3-0.2-2-0.5L8.6,37.1z"/>
</svg>
