<?xml version="1.0" encoding="UTF-8"?>
<svg id="Ebene_1" xmlns="http://www.w3.org/2000/svg" xmlns:xlink="http://www.w3.org/1999/xlink" version="1.1" viewBox="0 0 50 50">
  <!-- Generator: Adobe Illustrator 29.2.1, SVG Export Plug-In . SVG Version: 2.1.0 Build 116)  -->
  <path d="M32.5,32.2l-3-2.9L8.3,8l-2.5,2.5,3.6,3.6c-1.1,1.6-1.9,3.3-2.4,5.1-.6,1.8-.8,3.7-.8,5.6s.5,5.1,1.5,7.4c1,2.3,2.4,4.3,4.1,6.1,1.7,1.7,3.8,3.1,6.1,4.1,2.3,1,4.8,1.5,7.4,1.5s3.8-.3,5.6-.8c1.8-.6,3.5-1.4,5.1-2.4l3.6,3.6,2.5-2.5-9.5-9.5s0,0,0,0ZM29.4,39.7c-1.4.4-2.8.6-4.2.6-4.3,0-8-1.5-11-4.5-3-3-4.5-6.7-4.5-11s.2-2.9.6-4.2,1-2.7,1.7-3.9l4.1,4.1-1.1.5c.2.5.3,1.1.4,1.7,0,.6.1,1.2.1,1.8s0,1.2-.1,1.8c0,.6-.2,1.2-.4,1.7l3.4,1.4c.3-.8.5-1.6.6-2.4s.2-1.7.2-2.5,0-.7,0-1l3.4,3.4c0,.3,0,.6-.1.8-.2,1-.5,2-.9,3l3.3,1.3c.3-.7.5-1.4.7-2.1l2.8,2.8c0,.2-.2.4-.2.6l1.4.5,3.8,3.8c-1.3.7-2.6,1.3-3.9,1.7ZM29.9,24.6c0-1.6-.2-3.1-.5-4.6-.3-1.4-.7-2.8-1.3-4l3.3-1.3c.7,1.5,1.2,3.1,1.5,4.8.3,1.7.5,3.5.5,5.4s0,1.1,0,1.6c0,.5,0,1-.1,1.5l-3.4-3.4ZM44.2,24.8c0,1.9-.3,3.8-.8,5.6-.6,1.8-1.4,3.5-2.4,5.1l-2.6-2.6c.7-1.3,1.3-2.6,1.7-3.9.4-1.4.6-2.8.6-4.2,0-4.3-1.5-8-4.5-11-3-3-6.7-4.5-11-4.5s-2.9.2-4.2.6c-1.4.4-2.7,1-3.9,1.7l-2.6-2.6c1.6-1.1,3.3-1.9,5.1-2.4,1.8-.6,3.7-.8,5.6-.8s5.1.5,7.4,1.5,4.3,2.4,6.1,4.1c1.7,1.7,3.1,3.8,4.1,6.1s1.5,4.8,1.5,7.4ZM25.4,18.9c.2.5.3,1.1.4,1.6l-2.6-2.6,1.6-.6c.2.5.4,1.1.5,1.6Z"/>
</svg>