<?xml version="1.0" encoding="utf-8"?>
<!-- Generator: Adobe Illustrator 26.3.1, SVG Export Plug-In . SVG Version: 6.00 Build 0)  -->
<svg version="1.1" id="Ebene_1" xmlns="http://www.w3.org/2000/svg" xmlns:xlink="http://www.w3.org/1999/xlink" x="0px" y="0px"
	 viewBox="0 0 50 50" style="enable-background:new 0 0 50 50;" xml:space="preserve">
<path d="M28.2,28.3L24,24l-9.1,9.1l4.3,4.3L28.2,28.3z M26.4,21.6l4.2,4.3l9.1-9.1l-4.2-4.3L26.4,21.6z M22.8,20.4l9.1,9.1
	L21.6,39.8c-0.7,0.6-1.5,1-2.4,1c-0.9,0-1.7-0.2-2.3-0.9L16,40.9H6.9l5.5-5.5c-0.7-0.6-1-1.4-0.9-2.3c0-0.9,0.4-1.7,1.1-2.3
	L22.8,20.4z M22.8,20.4l10.3-10.3c0.7-0.7,1.5-1,2.4-1s1.7,0.3,2.4,1l4.2,4.2c0.6,0.7,0.9,1.5,0.9,2.4s-0.3,1.7-0.9,2.4L31.9,29.5
	L22.8,20.4z"/>
</svg>
