<?xml version="1.0" encoding="utf-8"?>
<!-- Generator: Adobe Illustrator 26.3.1, SVG Export Plug-In . SVG Version: 6.00 Build 0)  -->
<svg version="1.1" id="Ebene_1" xmlns="http://www.w3.org/2000/svg" xmlns:xlink="http://www.w3.org/1999/xlink" x="0px" y="0px"
	 viewBox="0 0 50 50" style="enable-background:new 0 0 50 50;" xml:space="preserve">
<path d="M23.1,34.7h3.6v-7.8h7.8v-3.6h-7.8v-7.9h-3.6v7.8h-7.8v3.6h7.8C23.1,26.8,23.1,34.7,23.1,34.7z M24.9,44.3
	c-2.7,0-5.2-0.5-7.5-1.5s-4.4-2.4-6.2-4.1c-1.8-1.8-3.1-3.8-4.1-6.2S5.7,27.7,5.7,25s0.5-5.2,1.5-7.5s2.4-4.3,4.1-6.1
	s3.8-3.1,6.2-4.1s4.8-1.5,7.5-1.5s5.2,0.5,7.5,1.5c2.4,1,4.3,2.4,6.1,4.1c1.8,1.8,3.1,3.8,4.1,6.2s1.5,4.8,1.5,7.5
	c0,2.7-0.5,5.2-1.5,7.5s-2.4,4.4-4.1,6.2c-1.8,1.8-3.8,3.1-6.2,4.1C30.1,43.8,27.6,44.3,24.9,44.3z M24.9,40.7c4.3,0,8-1.5,11.1-4.5
	c3.1-3.1,4.5-6.7,4.5-11.1c0-4.3-1.5-8-4.5-11.1c-3.1-3.1-6.7-4.5-11.1-4.5c-4.3,0-8,1.5-11.1,4.5S9.3,20.6,9.3,25
	c0,4.3,1.5,8,4.5,11.1S20.6,40.7,24.9,40.7z"/>
</svg>
