<?xml version="1.0" encoding="utf-8"?>
<!-- Generator: Adobe Illustrator 26.3.1, SVG Export Plug-In . SVG Version: 6.00 Build 0)  -->
<svg version="1.1" id="Ebene_1" xmlns="http://www.w3.org/2000/svg" xmlns:xlink="http://www.w3.org/1999/xlink" x="0px" y="0px"
	 viewBox="0 0 50 50" style="enable-background:new 0 0 50 50;" xml:space="preserve">
<path d="M25,32.6c2.1,0,3.9-0.7,5.4-2.2c1.5-1.5,2.2-3.3,2.2-5.4s-0.7-3.9-2.2-5.4c-1.5-1.5-3.3-2.2-5.4-2.2s-3.9,0.7-5.4,2.2
	c-1.5,1.5-2.2,3.3-2.2,5.4s0.7,3.9,2.2,5.4C21.1,31.9,22.9,32.6,25,32.6z M25,29.3c-1.2,0-2.2-0.5-3-1.3c-0.8-0.8-1.3-1.9-1.3-3
	s0.5-2.2,1.3-3c0.8-0.8,1.9-1.3,3-1.3s2.2,0.5,3,1.3c0.8,0.8,1.3,1.9,1.3,3s-0.5,2.2-1.3,3C27.2,29,26.2,29.3,25,29.3z M25,38.1
	c-4.3,0-8.2-1.2-11.8-3.5c-3.5-2.3-6.2-5.5-7.8-9.5c1.6-4,4.2-7.1,7.8-9.5s7.5-3.5,11.8-3.5s8.2,1.2,11.8,3.5
	c3.5,2.3,6.2,5.5,7.8,9.5c-1.6,4-4.2,7.1-7.8,9.5C33.2,36.8,29.3,38.1,25,38.1z M25,34.8c3.4,0,6.6-0.8,9.4-2.6
	c2.9-1.8,5-4.1,6.7-7.1c-1.5-3-3.7-5.4-6.7-7.1c-2.9-1.8-6-2.6-9.4-2.6s-6.6,0.8-9.4,2.6c-2.9,1.8-5,4.1-6.7,7.1
	c1.5,3,3.7,5.4,6.7,7.1C18.4,33.9,21.6,34.8,25,34.8z"/>
</svg>
