<?xml version="1.0" encoding="utf-8"?>
<!-- Generator: Adobe Illustrator 26.3.1, SVG Export Plug-In . SVG Version: 6.00 Build 0)  -->
<svg version="1.1" id="Ebene_1" xmlns="http://www.w3.org/2000/svg" xmlns:xlink="http://www.w3.org/1999/xlink" x="0px" y="0px"
	 viewBox="0 0 50 50" style="enable-background:new 0 0 50 50;" xml:space="preserve">
<path d="M5.2,39.9v-4.8c0-0.9,0.2-1.7,0.6-2.4c0.4-0.7,1-1.3,1.8-1.8c1.9-1.1,3.8-1.9,5.9-2.5c2.1-0.6,4.3-0.9,6.5-0.9
	s4.5,0.3,6.5,0.9c2.1,0.6,4.1,1.4,5.9,2.5c0.8,0.4,1.4,1,1.8,1.8c0.4,0.7,0.6,1.6,0.6,2.4v4.8H5.2z M38.6,39.9v-4.8
	c0-1.4-0.3-2.8-1-4c-0.7-1.2-1.6-2.3-2.7-3c1.3,0.3,2.6,0.6,3.9,1.1c1.3,0.5,2.5,1,3.6,1.7c0.8,0.4,1.4,1,1.8,1.8
	c0.4,0.7,0.6,1.6,0.6,2.4v4.8H38.6z M20,25c-2.1,0-3.8-0.7-5.3-2.2c-1.4-1.4-2.2-3.2-2.2-5.3s0.7-3.8,2.2-5.3s3.2-2.2,5.3-2.2
	s3.8,0.7,5.3,2.2s2.2,3.2,2.2,5.3s-0.7,3.8-2.2,5.3C23.9,24.3,22.1,25,20,25z M37.4,17.6c0,2.1-0.7,3.8-2.2,5.3
	C33.8,24.3,32,25,30,25c-0.3,0-0.5,0-0.8,0c-0.2,0-0.5-0.1-0.8-0.1c0.9-1,1.5-2.1,2-3.3c0.5-1.2,0.7-2.5,0.7-4s-0.2-2.7-0.7-4
	c-0.5-1.2-1.2-2.3-2-3.3c0.3-0.1,0.5-0.1,0.8-0.1c0.2,0,0.5,0,0.8,0c2.1,0,3.8,0.7,5.3,2.2S37.4,15.5,37.4,17.6z M8.9,36.2h22.3v-1
	c0-0.2-0.1-0.4-0.2-0.6c-0.1-0.2-0.2-0.3-0.4-0.4c-1.6-0.9-3.3-1.6-5.1-2.1c-1.8-0.5-3.6-0.7-5.5-0.7s-3.7,0.2-5.5,0.7
	c-1.8,0.5-3.5,1.2-5.1,2.2c-0.2,0.1-0.3,0.2-0.4,0.4c-0.1,0.2-0.2,0.4-0.2,0.6V36.2z M20.1,21.3c1,0,1.9-0.4,2.6-1.1
	c0.7-0.7,1.1-1.6,1.1-2.6c0-1-0.4-1.9-1.1-2.6c-0.7-0.7-1.6-1.1-2.6-1.1c-1,0-1.9,0.4-2.6,1.1c-0.7,0.7-1.1,1.6-1.1,2.6
	c0,1,0.4,1.9,1.1,2.6C18.1,20.9,19,21.3,20.1,21.3z"/>
</svg>
