<?xml version="1.0" encoding="utf-8"?>
<!-- Generator: Adobe Illustrator 26.3.1, SVG Export Plug-In . SVG Version: 6.00 Build 0)  -->
<svg version="1.1" id="Ebene_1" xmlns="http://www.w3.org/2000/svg" xmlns:xlink="http://www.w3.org/1999/xlink" x="0px" y="0px"
	 viewBox="0 0 50 50" style="enable-background:new 0 0 50 50;" xml:space="preserve">
<path d="M26.6,34.7l7.3-7.3l-2.6-2.6l-2.9,2.9v-7.6h-3.7v7.6l-2.9-2.9l-2.6,2.6L26.6,34.7z M15.6,44.5c-1,0-1.9-0.4-2.6-1.1
	c-0.7-0.7-1.1-1.6-1.1-2.6V15.3l9.7-9.7h15.8c1,0,1.9,0.4,2.6,1.1c0.7,0.7,1.1,1.6,1.1,2.6v31.6c0,1-0.4,1.9-1.1,2.6
	c-0.7,0.7-1.6,1.1-2.6,1.1H15.6z M15.6,40.8h21.9V9.2H23.2l-7.6,7.6V40.8z"/>
</svg>
