<?xml version="1.0" encoding="UTF-8"?>
<svg id="Ebene_1" xmlns="http://www.w3.org/2000/svg" xmlns:xlink="http://www.w3.org/1999/xlink" version="1.1" viewBox="0 0 50 50">
  <!-- Generator: Adobe Illustrator 29.2.1, SVG Export Plug-In . SVG Version: 2.1.0 Build 116)  -->
  <path d="M18.8,22.4c.1.8.2,1.7.2,2.6s0,1.7-.2,2.6c-.1.8-.3,1.6-.6,2.4l-3.4-1.4c.2-.6.4-1.2.5-1.8s.2-1.2.2-1.9,0-1.3-.2-1.9-.3-1.2-.5-1.8l3.4-1.4c.3.8.5,1.6.6,2.4ZM24.7,17.4l-3.4,1.4c.4.9.7,1.9.9,3s.3,2.1.3,3.3-.1,2.2-.3,3.3-.5,2-.9,3l3.4,1.4c.5-1.2.8-2.4,1.1-3.6.3-1.3.4-2.6.4-4s-.1-2.7-.4-4c-.3-1.3-.6-2.5-1.1-3.6ZM31.4,14.8l-3.4,1.3c.6,1.3,1,2.7,1.3,4.2.3,1.5.5,3.1.5,4.7s-.2,3.2-.5,4.7c-.3,1.5-.8,2.9-1.3,4.2l3.4,1.3c.7-1.5,1.2-3.1,1.5-4.8.4-1.7.5-3.5.5-5.4s-.2-3.7-.5-5.4c-.4-1.7-.9-3.3-1.5-4.8ZM44.2,25c0,2.6-.5,5.1-1.5,7.5-1,2.3-2.4,4.4-4.1,6.1-1.8,1.8-3.8,3.1-6.1,4.1s-4.8,1.5-7.5,1.5-5.1-.5-7.5-1.5-4.4-2.4-6.1-4.1c-1.8-1.8-3.1-3.8-4.1-6.1-1-2.3-1.5-4.8-1.5-7.5s.5-5.2,1.5-7.5,2.4-4.4,4.1-6.1,3.8-3.1,6.1-4.1,4.8-1.5,7.5-1.5,5.2.5,7.5,1.5,4.4,2.4,6.1,4.1c1.8,1.8,3.1,3.8,4.1,6.1s1.5,4.8,1.5,7.5ZM40.6,25c0-4.3-1.5-8-4.6-11.1-3-3-6.7-4.6-11.1-4.6s-8,1.5-11.1,4.6c-3,3-4.6,6.7-4.6,11.1s1.5,8,4.6,11.1c3,3,6.7,4.6,11.1,4.6s8-1.5,11.1-4.6,4.6-6.7,4.6-11.1Z"/>
</svg>