<?xml version="1.0" encoding="utf-8"?>
<!-- Generator: Adobe Illustrator 25.1.0, SVG Export Plug-In . SVG Version: 6.00 Build 0)  -->
<svg version="1.1" id="Ebene_1" xmlns="http://www.w3.org/2000/svg" xmlns:xlink="http://www.w3.org/1999/xlink" x="0px" y="0px"
	 viewBox="0 0 100 100" style="enable-background:new 0 0 100 100;" xml:space="preserve">
<path d="M64,29.7h10c-0.1-0.1-0.2-0.3-0.3-0.4L63,18.6c-0.1-0.1-0.3-0.2-0.4-0.3v10C62.6,29.1,63.2,29.7,64,29.7z"/>
<path d="M64,32.4c-2.3,0-4.1-1.8-4.1-4.1V17.4h-30c-2.3,0-4.1,1.8-4.1,4.1v57.2c0,2.3,1.8,4.1,4.1,4.1h40.9c2.3,0,4.1-1.8,4.1-4.1
	V32.4H64z M40.7,61.4c0.5,0.5,0.5,1.4,0,1.9c-0.3,0.3-0.6,0.4-1,0.4s-0.7-0.1-1-0.4L32,56.5c-0.5-0.5-0.5-1.4,0-1.9l6.8-6.8
	c0.5-0.5,1.4-0.5,1.9,0c0.5,0.5,0.5,1.4,0,1.9l-5.9,5.9L40.7,61.4z M56.7,43.8L45.8,68.4c-0.2,0.5-0.7,0.8-1.2,0.8
	c-0.2,0-0.4,0-0.6-0.1c-0.7-0.3-1-1.1-0.7-1.8l10.9-24.6c0.3-0.7,1.1-1,1.8-0.7C56.7,42.3,57,43.1,56.7,43.8z M68.7,56.5l-6.8,6.8
	c-0.3,0.3-0.6,0.4-1,0.4s-0.7-0.1-1-0.4c-0.5-0.5-0.5-1.4,0-1.9l5.9-5.9L60,49.7c-0.5-0.5-0.5-1.4,0-1.9s1.4-0.5,1.9,0l6.8,6.8
	C69.2,55.1,69.2,56,68.7,56.5z"/>
</svg>
