<?xml version="1.0" encoding="utf-8"?>
<!-- Generator: Adobe Illustrator 26.3.1, SVG Export Plug-In . SVG Version: 6.00 Build 0)  -->
<svg version="1.1" id="Ebene_1" xmlns="http://www.w3.org/2000/svg" xmlns:xlink="http://www.w3.org/1999/xlink" x="0px" y="0px"
	 viewBox="0 0 186 46" style="enable-background:new 0 0 186 46;" xml:space="preserve">
<style type="text/css">
	.d0as68zrqpxzj268{fill:#378ADC;}
</style>
<path id="Vector" class="d0as68zrqpxzj268" d="M17.7,0H0v35.2h11.9V46h5.8c6.4,0,11.7-5.4,11.7-12.1V12.1C29.4,5.4,24.2,0,17.7,0z M25.2,33.9
	c0,4.3-3.4,7.8-7.5,7.8h-1.7V24.6h1.7c2.9,0,5.5-1.1,7.5-2.8V33.9z M25.2,12.5c0,4.3-3.4,7.8-7.5,7.8v0h-5.8v10.6H4.2V4.3h13.6
	c4.1,0,7.5,3.5,7.5,7.8V12.5z M50.5,12.9c-1-0.5-2.1-0.8-3.5-0.8h-7.2v18.6h3.9v-6h3.2c1.4,0,2.6-0.3,3.6-0.8c1-0.5,1.7-1.3,2.3-2.2
	c0.5-0.9,0.8-2,0.8-3.3c0-1.2-0.3-2.3-0.8-3.3C52.2,14.2,51.5,13.4,50.5,12.9L50.5,12.9z M49.2,20c-0.2,0.5-0.6,0.8-1.1,1.1
	c-0.5,0.3-1.1,0.4-1.8,0.4h-2.6v-6.2h2.6c0.7,0,1.4,0.1,1.8,0.4c0.5,0.3,0.8,0.6,1.1,1.1c0.2,0.5,0.4,1,0.4,1.6
	C49.5,19,49.4,19.5,49.2,20L49.2,20z M96.6,18.3c-0.6-0.6-1.3-1-2-1.3c-0.8-0.3-1.6-0.4-2.5-0.4c-1.3,0-2.5,0.3-3.5,0.9
	c-1,0.6-1.8,1.5-2.3,2.5c-0.5,1.1-0.8,2.3-0.8,3.8s0.3,2.7,0.8,3.8c0.5,1.1,1.3,1.9,2.3,2.5c1,0.6,2.2,0.9,3.6,0.9
	c1.1,0,2.1-0.2,3-0.5c0.9-0.4,1.6-0.9,2.1-1.5c0.6-0.6,0.9-1.4,1.1-2.2l-3.5-0.2c-0.1,0.4-0.3,0.6-0.6,0.9c-0.3,0.2-0.6,0.4-0.9,0.5
	C93,28,92.7,28,92.2,28c-0.6,0-1.2-0.1-1.6-0.4c-0.5-0.3-0.8-0.7-1.1-1.2c-0.3-0.5-0.4-1.1-0.4-1.8l9.3,0v-1.1
	c0-1.2-0.2-2.2-0.5-3.1C97.6,19.6,97.2,18.9,96.6,18.3L96.6,18.3z M89.2,22.3c0-0.5,0.1-1,0.4-1.4c0.3-0.5,0.6-0.8,1-1.1
	c0.4-0.3,1-0.4,1.5-0.4c0.6,0,1,0.1,1.5,0.4c0.4,0.2,0.8,0.6,1,1c0.2,0.4,0.4,0.9,0.4,1.5L89.2,22.3L89.2,22.3z M131.2,21.5
	c-0.2,0.6-0.4,1.4-0.4,2.2s0.1,1.6,0.4,2.3c0.2,0.6,0.6,1.1,1,1.4c0.4,0.3,1,0.5,1.5,0.5c0.4,0,0.8-0.1,1.2-0.3
	c0.3-0.2,0.6-0.4,0.9-0.8c0.2-0.4,0.4-0.8,0.5-1.3h3.6c-0.1,1.1-0.3,2-0.9,2.8c-0.5,0.8-1.2,1.4-2.1,1.9c-0.9,0.5-1.9,0.7-3.2,0.7
	c-1.4,0-2.6-0.3-3.6-0.9c-1-0.6-1.8-1.5-2.3-2.5c-0.5-1.1-0.8-2.3-0.8-3.7s0.3-2.7,0.8-3.8c0.5-1.1,1.3-1.9,2.3-2.5
	c1-0.6,2.2-0.9,3.6-0.9c1.2,0,2.2,0.2,3.1,0.7c0.9,0.4,1.6,1.1,2.1,1.9c0.5,0.8,0.8,1.7,0.9,2.8h-3.6c-0.1-0.7-0.4-1.3-0.8-1.7
	c-0.4-0.4-1-0.6-1.7-0.6c-0.6,0-1.1,0.2-1.5,0.5C131.8,20.4,131.5,20.8,131.2,21.5L131.2,21.5z M186,24.7v-1.1
	c0-1.2-0.2-2.2-0.5-3.1c-0.3-0.9-0.8-1.6-1.4-2.2c-0.6-0.6-1.3-1-2-1.3c-0.8-0.3-1.6-0.4-2.5-0.4c-1.3,0-2.5,0.3-3.5,0.9
	c-1,0.6-1.8,1.5-2.3,2.5c-0.5,1.1-0.8,2.3-0.8,3.8s0.3,2.7,0.8,3.8c0.5,1.1,1.3,1.9,2.3,2.5c1,0.6,2.2,0.9,3.6,0.9
	c1.1,0,2.1-0.2,3-0.5c0.9-0.4,1.6-0.9,2.1-1.5c0.6-0.6,0.9-1.4,1.1-2.2l-3.5-0.2c-0.1,0.4-0.3,0.6-0.6,0.9c-0.3,0.2-0.6,0.4-0.9,0.5
	c-0.3,0.1-0.7,0.2-1.2,0.2c-0.6,0-1.2-0.1-1.6-0.4c-0.5-0.3-0.8-0.7-1.1-1.2c-0.3-0.5-0.4-1.1-0.4-1.8L186,24.7L186,24.7z
	 M177.1,20.9c0.3-0.5,0.6-0.8,1-1.1c0.4-0.3,1-0.4,1.5-0.4c0.6,0,1,0.1,1.5,0.4c0.4,0.2,0.8,0.6,1,1c0.2,0.4,0.4,0.9,0.4,1.5h-5.7
	C176.7,21.8,176.9,21.3,177.1,20.9L177.1,20.9z M168.2,17.3c-0.8-0.5-1.8-0.8-2.8-0.8c-0.8,0-1.4,0.1-1.9,0.4
	c-0.5,0.3-0.9,0.6-1.2,1c-0.3,0.4-0.6,0.8-0.7,1.1h-0.2v-2.3h-3.7v19.2h3.8v-7.5h0.1c0.2,0.4,0.4,0.8,0.7,1.2
	c0.3,0.4,0.7,0.7,1.3,0.9c0.5,0.2,1.1,0.4,1.9,0.4c1,0,2-0.3,2.8-0.8c0.8-0.5,1.5-1.4,2-2.4c0.5-1.1,0.7-2.4,0.7-3.9s-0.3-2.9-0.8-4
	C169.7,18.7,169,17.9,168.2,17.3L168.2,17.3z M166.8,25.8c-0.2,0.6-0.5,1.1-1,1.5c-0.4,0.3-1,0.5-1.6,0.5s-1.1-0.2-1.6-0.5
	c-0.4-0.3-0.8-0.8-1-1.4c-0.2-0.6-0.3-1.3-0.3-2.2s0.1-1.5,0.3-2.2c0.2-0.6,0.6-1.1,1-1.4c0.4-0.3,1-0.5,1.6-0.5s1.1,0.2,1.6,0.5
	s0.8,0.8,1,1.4c0.2,0.6,0.3,1.3,0.3,2.1S167,25.2,166.8,25.8L166.8,25.8z M124.6,23.3c0.3,0.6,0.4,1.3,0.4,2.1c0,1.1-0.3,2.1-0.9,3
	c-0.6,0.8-1.4,1.5-2.4,1.9c-1.1,0.5-2.3,0.7-3.8,0.7c-1.5,0-2.7-0.2-3.8-0.7c-1.1-0.5-1.9-1.1-2.5-2c-0.6-0.9-0.9-2-1-3.4h3.7
	c0,0.6,0.2,1.1,0.5,1.6c0.3,0.4,0.7,0.7,1.3,0.9c0.5,0.2,1.1,0.3,1.8,0.3c0.7,0,1.2-0.1,1.7-0.3c0.5-0.2,0.9-0.5,1.1-0.8
	c0.3-0.3,0.4-0.7,0.4-1.2c0-0.4-0.1-0.8-0.4-1.1c-0.2-0.3-0.6-0.5-1.1-0.7c-0.5-0.2-1-0.4-1.7-0.5l-2-0.5c-1.5-0.4-2.8-1-3.6-1.8
	c-0.9-0.8-1.3-1.9-1.3-3.3c0-1.1,0.3-2.1,0.9-3c0.6-0.8,1.4-1.5,2.5-2c1-0.5,2.2-0.7,3.6-0.7c1.3,0,2.5,0.2,3.5,0.7
	c1,0.5,1.8,1.1,2.4,2c0.6,0.8,0.9,1.8,0.9,2.9h-3.7c-0.1-0.7-0.4-1.3-0.9-1.7c-0.5-0.4-1.3-0.6-2.2-0.6c-0.6,0-1.2,0.1-1.6,0.3
	c-0.4,0.2-0.8,0.4-1,0.7c-0.2,0.3-0.3,0.7-0.3,1.1c0,0.3,0.1,0.6,0.2,0.9c0.2,0.2,0.4,0.5,0.6,0.6c0.3,0.2,0.6,0.3,0.9,0.5
	c0.4,0.1,0.7,0.2,1.1,0.3l1.6,0.4c0.8,0.2,1.5,0.4,2.2,0.7c0.7,0.3,1.2,0.7,1.7,1.1C124,22.2,124.4,22.7,124.6,23.3L124.6,23.3z
	 M108.6,16.6c0.2,0,0.4,0.1,0.6,0.1v3.4c-0.2-0.1-0.4-0.1-0.7-0.1c-0.3,0-0.6-0.1-0.9-0.1c-0.6,0-1.1,0.1-1.5,0.4
	c-0.4,0.2-0.8,0.6-1,1c-0.3,0.4-0.4,0.9-0.4,1.5v7.9h-3.8V16.7h3.7v2.4h0.1c0.3-0.9,0.7-1.5,1.3-2c0.6-0.4,1.3-0.7,2-0.7
	C108.2,16.5,108.4,16.5,108.6,16.6L108.6,16.6z M80.6,17.3c-0.8-0.5-1.8-0.8-2.8-0.8c-0.8,0-1.4,0.1-1.9,0.4c-0.5,0.3-0.9,0.6-1.2,1
	c-0.3,0.4-0.6,0.8-0.7,1.1h-0.2v-2.3h-3.7v19.2h3.8v-7.5H74c0.2,0.4,0.4,0.8,0.7,1.2c0.3,0.4,0.7,0.7,1.3,0.9
	c0.5,0.2,1.1,0.4,1.9,0.4c1,0,2-0.3,2.8-0.8c0.8-0.5,1.5-1.4,2-2.4c0.5-1.1,0.7-2.4,0.7-3.9s-0.3-2.9-0.8-4
	C82.2,18.7,81.5,17.9,80.6,17.3L80.6,17.3z M79.2,25.8c-0.2,0.6-0.5,1.1-1,1.5c-0.4,0.3-1,0.5-1.6,0.5s-1.1-0.2-1.6-0.5
	c-0.4-0.3-0.8-0.8-1-1.4c-0.2-0.6-0.3-1.3-0.3-2.2s0.1-1.5,0.3-2.2c0.2-0.6,0.6-1.1,1-1.4c0.4-0.3,1-0.5,1.6-0.5s1.1,0.2,1.6,0.5
	c0.4,0.3,0.8,0.8,1,1.4c0.2,0.6,0.3,1.3,0.3,2.1S79.4,25.2,79.2,25.8L79.2,25.8z M152,17.5c-1-0.6-2.2-0.9-3.6-0.9s-2.6,0.3-3.6,0.9
	c-1,0.6-1.8,1.4-2.3,2.5c-0.5,1.1-0.8,2.3-0.8,3.8s0.3,2.7,0.8,3.8c0.5,1.1,1.3,1.9,2.3,2.5c1,0.6,2.2,0.9,3.6,0.9s2.6-0.3,3.6-0.9
	c1-0.6,1.8-1.4,2.3-2.5c0.5-1.1,0.8-2.3,0.8-3.8s-0.3-2.7-0.8-3.8C153.8,18.9,153,18.1,152,17.5z M151,25.9c-0.2,0.6-0.5,1.1-1,1.5
	c-0.4,0.4-0.9,0.5-1.6,0.5c-0.6,0-1.2-0.2-1.6-0.5c-0.4-0.4-0.8-0.9-1-1.5c-0.2-0.6-0.3-1.4-0.3-2.2s0.1-1.5,0.3-2.2
	c0.2-0.6,0.5-1.1,1-1.5c0.4-0.4,1-0.6,1.6-0.6c0.6,0,1.2,0.2,1.6,0.6c0.4,0.4,0.7,0.9,1,1.5c0.2,0.6,0.3,1.4,0.3,2.2
	S151.2,25.3,151,25.9z M65.4,17.7c-0.5-0.4-1.2-0.7-1.9-0.8c-0.7-0.2-1.4-0.3-2.2-0.3c-1.1,0-2.1,0.2-2.9,0.5
	c-0.8,0.3-1.5,0.8-2,1.4c-0.5,0.6-0.9,1.3-1.1,2.2l3.5,0.3c0.1-0.5,0.4-0.8,0.8-1.1c0.4-0.3,0.9-0.5,1.6-0.5c0.6,0,1.1,0.2,1.5,0.5
	c0.4,0.3,0.5,0.8,0.5,1.3v0.1c0,0.3-0.1,0.5-0.3,0.7s-0.6,0.3-1.1,0.3c-0.5,0.1-1.1,0.2-1.9,0.2c-0.7,0.1-1.3,0.2-1.9,0.3
	c-0.6,0.2-1.2,0.4-1.6,0.7c-0.5,0.3-0.9,0.7-1.1,1.3c-0.3,0.5-0.4,1.2-0.4,1.9c0,0.9,0.2,1.7,0.6,2.3c0.4,0.6,0.9,1.1,1.6,1.4
	c0.7,0.3,1.5,0.5,2.3,0.5c0.7,0,1.3-0.1,1.8-0.3c0.5-0.2,1-0.4,1.3-0.8c0.4-0.3,0.7-0.7,0.9-1.1h0.1v1.9h3.6v-9.4
	c0-0.8-0.2-1.5-0.5-2.1C66.4,18.5,65.9,18,65.4,17.7L65.4,17.7z M63.4,25.7c0,0.5-0.1,0.9-0.4,1.3c-0.2,0.4-0.6,0.7-1,0.9
	c-0.4,0.2-0.9,0.3-1.5,0.3c-0.6,0-1.1-0.1-1.4-0.4c-0.4-0.3-0.6-0.7-0.6-1.2c0-0.4,0.1-0.7,0.3-0.9c0.2-0.2,0.4-0.4,0.8-0.6
	c0.3-0.1,0.7-0.2,1.2-0.3c0.2,0,0.4-0.1,0.7-0.1c0.3,0,0.5-0.1,0.8-0.1c0.3-0.1,0.5-0.1,0.7-0.2c0.2-0.1,0.4-0.1,0.5-0.2V25.7
	L63.4,25.7z"/>
</svg>
