<?xml version="1.0" encoding="utf-8"?>
<!-- Generator: Adobe Illustrator 26.3.1, SVG Export Plug-In . SVG Version: 6.00 Build 0)  -->
<svg version="1.1" id="Ebene_2_1_" xmlns="http://www.w3.org/2000/svg" xmlns:xlink="http://www.w3.org/1999/xlink" x="0px" y="0px"
	 viewBox="0 0 32.6 50" style="enable-background:new 0 0 32.6 50;" xml:space="preserve">
<path fill="#fff " d="M13.2,38.3L13.2,38.3L13.2,38.3L0,38.2V0h19.6c7.1,0,12.9,5.9,12.9,13.1v23.7c0,7.2-5.8,13.1-12.9,13.1h-6.5V38.3z
	 M17.8,45.3L17.8,45.3L17.8,45.3l1.9,0c4.6,0,8.4-3.8,8.4-8.5V23.7v-0.1l0,0c-2.3,1.9-5.2,3.1-8.3,3.1h-1.8h0v0V45.3z M13.2,33.6
	V22.1h6.4v0h0c4.6,0,8.4-3.8,8.4-8.5v-0.5c0-4.7-3.7-8.5-8.4-8.5h-15h0v0v28.9v0h0L13.2,33.6L13.2,33.6L13.2,33.6z"/>
</svg>
