<?xml version="1.0" encoding="utf-8"?><svg xmlns="http://www.w3.org/2000/svg" xmlns:xlink="http://www.w3.org/1999/xlink"><symbol viewBox="0 0 50 50" xml:space="preserve" id="accordion" xmlns="http://www.w3.org/2000/svg"><path d="M25 35.4 9.7 14.6h30.6z"/></symbol><symbol viewBox="0 0 50 50" xml:space="preserve" id="btn-add" xmlns="http://www.w3.org/2000/svg"><path d="M23.1 34.7h3.6v-7.8h7.8v-3.6h-7.8v-7.9h-3.6v7.8h-7.8v3.6h7.8v7.9zm1.8 9.6c-2.7 0-5.2-.5-7.5-1.5s-4.4-2.4-6.2-4.1c-1.8-1.8-3.1-3.8-4.1-6.2S5.7 27.7 5.7 25s.5-5.2 1.5-7.5 2.4-4.3 4.1-6.1 3.8-3.1 6.2-4.1 4.8-1.5 7.5-1.5 5.2.5 7.5 1.5c2.4 1 4.3 2.4 6.1 4.1 1.8 1.8 3.1 3.8 4.1 6.2s1.5 4.8 1.5 7.5-.5 5.2-1.5 7.5-2.4 4.4-4.1 6.2c-1.8 1.8-3.8 3.1-6.2 4.1-2.3.9-4.8 1.4-7.5 1.4zm0-3.6c4.3 0 8-1.5 11.1-4.5 3.1-3.1 4.5-6.7 4.5-11.1 0-4.3-1.5-8-4.5-11.1-3.1-3.1-6.7-4.5-11.1-4.5-4.3 0-8 1.5-11.1 4.5s-4.5 6.6-4.5 11c0 4.3 1.5 8 4.5 11.1s6.8 4.6 11.1 4.6z"/></symbol><symbol viewBox="0 0 50 50" id="btn-change" xmlns="http://www.w3.org/2000/svg"><path d="M25 42.5c-4.9 0-9-1.7-12.5-5.2-3.5-3.4-5.1-7.7-5-12.7L4 28.1.9 25l8.7-8.7 8.7 8.7-3.1 3.1-3.5-3.5c0 3.8 1.2 7 3.8 9.6 2.6 2.6 5.7 3.9 9.3 3.9s1.7 0 2.5-.2 1.6-.4 2.4-.7l3.2 3.2c-1.2.6-2.5 1.2-3.9 1.5-1.4.4-2.8.6-4.3.6Zm15.3-8.8L31.6 25l3.1-3.1 3.5 3.5c0-3.8-1.2-7-3.8-9.6-2.6-2.6-5.7-3.9-9.3-3.9s-1.7 0-2.5.2-1.6.4-2.4.7L17 9.6c1.2-.6 2.5-1.2 3.9-1.5 1.4-.4 2.8-.6 4.2-.6 4.9 0 9.1 1.7 12.5 5.2 3.4 3.4 5.1 7.7 5 12.7l3.5-3.5 3.1 3.1-8.7 8.7Z"/></symbol><symbol viewBox="0 0 50 50" id="btn-connected" xmlns="http://www.w3.org/2000/svg"><path d="M18.8 22.4c.1.8.2 1.7.2 2.6s0 1.7-.2 2.6c-.1.8-.3 1.6-.6 2.4l-3.4-1.4c.2-.6.4-1.2.5-1.8s.2-1.2.2-1.9 0-1.3-.2-1.9-.3-1.2-.5-1.8l3.4-1.4c.3.8.5 1.6.6 2.4Zm5.9-5-3.4 1.4c.4.9.7 1.9.9 3s.3 2.1.3 3.3-.1 2.2-.3 3.3-.5 2-.9 3l3.4 1.4c.5-1.2.8-2.4 1.1-3.6.3-1.3.4-2.6.4-4s-.1-2.7-.4-4c-.3-1.3-.6-2.5-1.1-3.6Zm6.7-2.6L28 16.1c.6 1.3 1 2.7 1.3 4.2.3 1.5.5 3.1.5 4.7s-.2 3.2-.5 4.7-.8 2.9-1.3 4.2l3.4 1.3c.7-1.5 1.2-3.1 1.5-4.8.4-1.7.5-3.5.5-5.4s-.2-3.7-.5-5.4c-.4-1.7-.9-3.3-1.5-4.8ZM44.2 25c0 2.6-.5 5.1-1.5 7.5-1 2.3-2.4 4.4-4.1 6.1-1.8 1.8-3.8 3.1-6.1 4.1s-4.8 1.5-7.5 1.5-5.1-.5-7.5-1.5-4.4-2.4-6.1-4.1c-1.8-1.8-3.1-3.8-4.1-6.1-1-2.3-1.5-4.8-1.5-7.5s.5-5.2 1.5-7.5 2.4-4.4 4.1-6.1 3.8-3.1 6.1-4.1 4.8-1.5 7.5-1.5 5.2.5 7.5 1.5 4.4 2.4 6.1 4.1c1.8 1.8 3.1 3.8 4.1 6.1s1.5 4.8 1.5 7.5Zm-3.6 0c0-4.3-1.5-8-4.6-11.1-3-3-6.7-4.6-11.1-4.6s-8 1.5-11.1 4.6c-3 3-4.6 6.7-4.6 11.1s1.5 8 4.6 11.1c3 3 6.7 4.6 11.1 4.6s8-1.5 11.1-4.6 4.6-6.7 4.6-11.1Z"/></symbol><symbol viewBox="0 0 50 50" xml:space="preserve" id="btn-delete" xmlns="http://www.w3.org/2000/svg"><path d="M16.6 41.9c-1 0-1.8-.4-2.6-1.1-.7-.7-1.1-1.6-1.1-2.6V14.1h-2.4v-3.6h9.7V8.1h9.7v2.4h9.7v3.6h-2.4v24.1c0 1-.4 1.9-1.1 2.6-.7.7-1.6 1.1-2.6 1.1H16.6zm16.8-27.8H16.6v24.1h16.9V14.1zM20.2 34.7h3.6V17.8h-3.6v16.9zm6 0h3.6V17.8h-3.6v16.9z"/></symbol><symbol viewBox="0 0 50 50" id="btn-disconnected" xmlns="http://www.w3.org/2000/svg"><path d="m32.5 32.2-3-2.9L8.3 8l-2.5 2.5 3.6 3.6c-1.1 1.6-1.9 3.3-2.4 5.1-.6 1.8-.8 3.7-.8 5.6s.5 5.1 1.5 7.4c1 2.3 2.4 4.3 4.1 6.1 1.7 1.7 3.8 3.1 6.1 4.1 2.3 1 4.8 1.5 7.4 1.5s3.8-.3 5.6-.8c1.8-.6 3.5-1.4 5.1-2.4l3.6 3.6 2.5-2.5-9.5-9.5Zm-3.1 7.5c-1.4.4-2.8.6-4.2.6-4.3 0-8-1.5-11-4.5s-4.5-6.7-4.5-11 .2-2.9.6-4.2 1-2.7 1.7-3.9l4.1 4.1-1.1.5c.2.5.3 1.1.4 1.7 0 .6.1 1.2.1 1.8s0 1.2-.1 1.8c0 .6-.2 1.2-.4 1.7l3.4 1.4c.3-.8.5-1.6.6-2.4s.2-1.7.2-2.5v-1l3.4 3.4c0 .3 0 .6-.1.8-.2 1-.5 2-.9 3l3.3 1.3c.3-.7.5-1.4.7-2.1l2.8 2.8c0 .2-.2.4-.2.6l1.4.5 3.8 3.8c-1.3.7-2.6 1.3-3.9 1.7Zm.5-15.1c0-1.6-.2-3.1-.5-4.6-.3-1.4-.7-2.8-1.3-4l3.3-1.3c.7 1.5 1.2 3.1 1.5 4.8.3 1.7.5 3.5.5 5.4v1.6c0 .5 0 1-.1 1.5l-3.4-3.4Zm14.3.2c0 1.9-.3 3.8-.8 5.6-.6 1.8-1.4 3.5-2.4 5.1l-2.6-2.6c.7-1.3 1.3-2.6 1.7-3.9.4-1.4.6-2.8.6-4.2 0-4.3-1.5-8-4.5-11s-6.7-4.5-11-4.5-2.9.2-4.2.6c-1.4.4-2.7 1-3.9 1.7L14.5 9c1.6-1.1 3.3-1.9 5.1-2.4 1.8-.6 3.7-.8 5.6-.8s5.1.5 7.4 1.5 4.3 2.4 6.1 4.1c1.7 1.7 3.1 3.8 4.1 6.1s1.5 4.8 1.5 7.4Zm-18.8-5.9c.2.5.3 1.1.4 1.6l-2.6-2.6 1.6-.6c.2.5.4 1.1.5 1.6Z"/></symbol><symbol viewBox="0 0 50 50" xml:space="preserve" id="btn-download" xmlns="http://www.w3.org/2000/svg"><path d="m26.6 34.7 7.3-7.3-2.6-2.6-2.9 2.9v-7.6h-3.7v7.6l-2.9-2.9-2.6 2.6 7.4 7.3zm-11 9.8c-1 0-1.9-.4-2.6-1.1-.7-.7-1.1-1.6-1.1-2.6V15.3l9.7-9.7h15.8c1 0 1.9.4 2.6 1.1.7.7 1.1 1.6 1.1 2.6v31.6c0 1-.4 1.9-1.1 2.6-.7.7-1.6 1.1-2.6 1.1H15.6zm0-3.7h21.9V9.2H23.2l-7.6 7.6v24z"/></symbol><symbol viewBox="0 0 50 50" xml:space="preserve" id="btn-edit" xmlns="http://www.w3.org/2000/svg"><path d="M28.2 28.3 24 24l-9.1 9.1 4.3 4.3 9-9.1zm-1.8-6.7 4.2 4.3 9.1-9.1-4.2-4.3-9.1 9.1zm-3.6-1.2 9.1 9.1-10.3 10.3c-.7.6-1.5 1-2.4 1-.9 0-1.7-.2-2.3-.9l-.9 1H6.9l5.5-5.5c-.7-.6-1-1.4-.9-2.3 0-.9.4-1.7 1.1-2.3l10.2-10.4zm0 0 10.3-10.3c.7-.7 1.5-1 2.4-1s1.7.3 2.4 1l4.2 4.2c.6.7.9 1.5.9 2.4s-.3 1.7-.9 2.4L31.9 29.5l-9.1-9.1z"/></symbol><symbol viewBox="0 0 50 50" id="btn-fullscreen" xmlns="http://www.w3.org/2000/svg"><path d="M7.5 42.5v-10h3.7v6.2h6.2v3.7H7.5Zm25 0v-3.7h6.2v-6.2h3.7v10h-10Zm-25-25v-10h10v3.7h-6.2v6.2H7.6Zm31.2 0v-6.2h-6.2V7.6h10v10h-3.7Z"/></symbol><symbol viewBox="0 0 50 50" xml:space="preserve" id="btn-guests" xmlns="http://www.w3.org/2000/svg"><path d="M5.2 39.9v-4.8c0-.9.2-1.7.6-2.4.4-.7 1-1.3 1.8-1.8 1.9-1.1 3.8-1.9 5.9-2.5 2.1-.6 4.3-.9 6.5-.9s4.5.3 6.5.9c2.1.6 4.1 1.4 5.9 2.5.8.4 1.4 1 1.8 1.8.4.7.6 1.6.6 2.4v4.8H5.2zm33.4 0v-4.8c0-1.4-.3-2.8-1-4-.7-1.2-1.6-2.3-2.7-3 1.3.3 2.6.6 3.9 1.1 1.3.5 2.5 1 3.6 1.7.8.4 1.4 1 1.8 1.8.4.7.6 1.6.6 2.4v4.8h-6.2zM20 25c-2.1 0-3.8-.7-5.3-2.2-1.4-1.4-2.2-3.2-2.2-5.3s.7-3.8 2.2-5.3S17.9 10 20 10s3.8.7 5.3 2.2 2.2 3.2 2.2 5.3-.7 3.8-2.2 5.3C23.9 24.3 22.1 25 20 25zm17.4-7.4c0 2.1-.7 3.8-2.2 5.3C33.8 24.3 32 25 30 25h-.8c-.2 0-.5-.1-.8-.1.9-1 1.5-2.1 2-3.3.5-1.2.7-2.5.7-4s-.2-2.7-.7-4c-.5-1.2-1.2-2.3-2-3.3.3-.1.5-.1.8-.1h.8c2.1 0 3.8.7 5.3 2.2s2.1 3.1 2.1 5.2zM8.9 36.2h22.3v-1c0-.2-.1-.4-.2-.6-.1-.2-.2-.3-.4-.4-1.6-.9-3.3-1.6-5.1-2.1-1.8-.5-3.6-.7-5.5-.7s-3.7.2-5.5.7c-1.8.5-3.5 1.2-5.1 2.2-.2.1-.3.2-.4.4-.1.2-.2.4-.2.6v.9zm11.2-14.9c1 0 1.9-.4 2.6-1.1.7-.7 1.1-1.6 1.1-2.6s-.4-1.9-1.1-2.6c-.7-.7-1.6-1.1-2.6-1.1s-1.9.4-2.6 1.1c-.7.7-1.1 1.6-1.1 2.6s.4 1.9 1.1 2.6c.6.7 1.5 1.1 2.6 1.1z"/></symbol><symbol viewBox="0 0 50 50" xml:space="preserve" id="btn-leave" xmlns="http://www.w3.org/2000/svg"><path d="m16.7 27 11.2 11.2-2.9 2.9L8.9 25 25 8.9l2.9 2.9L16.7 23h24.5v4H16.7z"/></symbol><symbol viewBox="0 0 50 50" xml:space="preserve" id="btn-logout" xmlns="http://www.w3.org/2000/svg"><path d="M11.6 43.3c-1.1 0-2-.4-2.7-1.1-.8-.8-1.1-1.7-1.1-2.7V10.9c0-1.1.4-2 1.1-2.7.7-.8 1.6-1.2 2.7-1.2h14.3v3.9H11.6v28.5h14.3v3.9H11.6zm23.3-9-2.8-2.8 4.4-4.4H20.6v-3.9h15.9l-4.4-4.4 2.8-2.8 9.1 9.1-9.1 9.2z"/></symbol><symbol viewBox="0 0 50 50" xml:space="preserve" id="btn-objects" xmlns="http://www.w3.org/2000/svg"><path d="M23 40.9V26.1l-12.4-7.2v14.7L23 40.9zm4 0 12.4-7.1V19L27 26.1v14.8zm-2-18.2 12.8-7.4-12.9-7.4-12.8 7.4L25 22.7zM8.6 37.1c-.6-.4-1.1-.8-1.4-1.4-.3-.6-.5-1.2-.5-2V16.2c0-.7.2-1.4.5-2 .3-.6.8-1.1 1.4-1.4L23 4.6c.6-.4 1.3-.6 2-.6s1.4.2 2 .5l14.4 8.3c.6.4 1.1.8 1.4 1.4.3.6.5 1.2.5 2v17.5c0 .7-.2 1.4-.5 2-.3.6-.8 1.1-1.4 1.4L27 45.4c-.6.4-1.3.5-2 .5s-1.3-.2-2-.5L8.6 37.1z"/></symbol><symbol viewBox="0 0 50 50" xml:space="preserve" id="btn-reset" xmlns="http://www.w3.org/2000/svg"><path d="m24.4 32.6 5.1-5.1 5.1 5.1 2.5-2.5L32 25l5.1-5.1-2.5-2.5-5.1 5.1-5.1-5.1-2.5 2.5L27 25l-5.1 5.1 2.5 2.5zm-5.8 7.7c-.6 0-1.2-.1-1.7-.4-.5-.3-1-.6-1.4-1.1L5.2 25l10.3-13.8c.4-.5.9-.9 1.4-1.1.5-.3 1.1-.4 1.7-.4h22.3c1.1 0 2 .4 2.7 1.1.7.7 1.1 1.6 1.1 2.7v22.9c0 1.1-.4 1.9-1.1 2.7-.7.7-1.6 1.1-2.7 1.1H18.6zM10 25l8.6 11.5h22.3v-23H18.6L10 25z"/></symbol><symbol viewBox="0 0 50 50" xml:space="preserve" id="btn-save" xmlns="http://www.w3.org/2000/svg"><path d="M33.3 23 22.1 11.8 25 8.9 41.1 25 25 41.1l-2.9-2.9L33.3 27H8.9v-4h24.4z"/></symbol><symbol viewBox="0 0 50 50" xml:space="preserve" id="btn-visualizer" xmlns="http://www.w3.org/2000/svg"><path d="M25 32.6c2.1 0 3.9-.7 5.4-2.2 1.5-1.5 2.2-3.3 2.2-5.4s-.7-3.9-2.2-5.4c-1.5-1.5-3.3-2.2-5.4-2.2s-3.9.7-5.4 2.2c-1.5 1.5-2.2 3.3-2.2 5.4s.7 3.9 2.2 5.4c1.5 1.5 3.3 2.2 5.4 2.2zm0-3.3c-1.2 0-2.2-.5-3-1.3-.8-.8-1.3-1.9-1.3-3s.5-2.2 1.3-3c.8-.8 1.9-1.3 3-1.3s2.2.5 3 1.3c.8.8 1.3 1.9 1.3 3s-.5 2.2-1.3 3c-.8 1-1.8 1.3-3 1.3zm0 8.8c-4.3 0-8.2-1.2-11.8-3.5-3.5-2.3-6.2-5.5-7.8-9.5 1.6-4 4.2-7.1 7.8-9.5s7.5-3.5 11.8-3.5 8.2 1.2 11.8 3.5c3.5 2.3 6.2 5.5 7.8 9.5-1.6 4-4.2 7.1-7.8 9.5-3.6 2.2-7.5 3.5-11.8 3.5zm0-3.3c3.4 0 6.6-.8 9.4-2.6 2.9-1.8 5-4.1 6.7-7.1-1.5-3-3.7-5.4-6.7-7.1-2.9-1.8-6-2.6-9.4-2.6s-6.6.8-9.4 2.6c-2.9 1.8-5 4.1-6.7 7.1 1.5 3 3.7 5.4 6.7 7.1 2.8 1.7 6 2.6 9.4 2.6z"/></symbol><symbol viewBox="0 0 50 50" xml:space="preserve" id="close" xmlns="http://www.w3.org/2000/svg"><path d="m10.01 11.99 2.05-2.051 28 28-2.05 2.052z"/><path d="m10.01 38.01 28-28 2.05 2.05-28 28.001z"/></symbol><symbol viewBox="0 0 40 40" xml:space="preserve" id="datalist-delete" xmlns="http://www.w3.org/2000/svg"><path d="M23.8 11.5V8.3h-8v3.1H9.2v1.7h1.9l1.4 18.5h14.6l1.4-18.5h2.3v-1.7c0 .1-7 .1-7 .1zM22.1 10v1.4h-4.7V10h4.7zm-8 20-1.3-16.8h14.1L25.6 30H14.1z"/><path d="M18.9 15.6h1.7v12.1h-1.7zM22.048 27.672l.656-12.081 1.697.092-.656 12.082zM15.273 15.553l1.698-.092.654 12.082-1.697.092z"/></symbol><symbol viewBox="0 0 40 40" xml:space="preserve" id="datalist-edit" xmlns="http://www.w3.org/2000/svg"><path d="M10.3 30.6c-.2 0-.4-.1-.6-.2-.2-.2-.3-.5-.2-.8l1.8-6.4c0-.1.1-.2.2-.4l12.4-12.4c.6-.6 1.4-.9 2.2-.9s1.6.3 2.2.9l1.4 1.4c.6.6.9 1.4.9 2.2 0 .8-.3 1.6-.9 2.2L17.3 28.5c-.1.1-.2.2-.4.2l-6.4 1.8c-.1.1-.2.1-.2.1zm1.2-2.1 4.7-1.4 9.8-9.8-3.4-3.3-9.8 9.8-1.3 4.7zm15.7-12.3 1.2-1.2c.3-.3.4-.6.4-1s-.1-.7-.4-1L27 11.6c-.3-.3-.6-.4-1-.4s-.7.1-1 .4l-1.2 1.2 3.4 3.4z"/></symbol><symbol viewBox="0 0 40 40" xml:space="preserve" id="datalist-visualizer" xmlns="http://www.w3.org/2000/svg"><path d="M6.3 20.2c9.8-9.5 17.6-9.6 27.5 0-10 9-17.7 8.9-27.5 0zm18.8-4.6c2.1 2.5 2.1 6.3-.1 8.8 2.3-.9 4.1-2.3 6.4-4.3-2.3-2.1-3.9-3.5-6.3-4.5zM15 24.4c-2.2-2.5-2.2-6.3-.1-8.8-2.3 1-4.1 2.4-6.3 4.5 2.3 2 4.1 3.5 6.4 4.3zm8.6-8c-3.2-3.3-8.7-1-8.7 3.6 0 4.5 5.5 6.8 8.7 3.6 2.1-2 2.1-5.2 0-7.2z"/><path d="M19.9 16.4c-2 0-3.5 1.7-3.5 3.6s1.5 3.5 3.5 3.5c2.4 0 4.2-2.3 3.5-4.5-.7 1.8-3.3 1.3-3.3-.6 0-.9.6-1.5 1.4-1.8-.5-.1-.9-.2-1.6-.2z"/></symbol><symbol viewBox="0 0 100 100" xml:space="preserve" id="file-3d" xmlns="http://www.w3.org/2000/svg"><path d="M64.1 29.5h10.1c-.1-.1-.2-.3-.3-.4L63.1 18.4c-.1-.1-.3-.2-.4-.3v10.1c0 .7.6 1.3 1.4 1.3z"/><path d="M64.1 32.3c-2.3 0-4.1-1.8-4.1-4.1v-11H29.9c-2.3 0-4.1 1.8-4.1 4.1v57.4c0 2.3 1.8 4.1 4.1 4.1h41c2.3 0 4.1-1.8 4.1-4.1V32.3H64.1z"/></symbol><symbol viewBox="0 0 100 100" xml:space="preserve" id="file-code" xmlns="http://www.w3.org/2000/svg"><path d="M64 29.7h10c-.1-.1-.2-.3-.3-.4L63 18.6c-.1-.1-.3-.2-.4-.3v10c0 .8.6 1.4 1.4 1.4z"/><path d="M64 32.4c-2.3 0-4.1-1.8-4.1-4.1V17.4h-30c-2.3 0-4.1 1.8-4.1 4.1v57.2c0 2.3 1.8 4.1 4.1 4.1h40.9c2.3 0 4.1-1.8 4.1-4.1V32.4H64zm-23.3 29c.5.5.5 1.4 0 1.9-.3.3-.6.4-1 .4s-.7-.1-1-.4L32 56.5c-.5-.5-.5-1.4 0-1.9l6.8-6.8c.5-.5 1.4-.5 1.9 0s.5 1.4 0 1.9l-5.9 5.9 5.9 5.8zm16-17.6L45.8 68.4c-.2.5-.7.8-1.2.8-.2 0-.4 0-.6-.1-.7-.3-1-1.1-.7-1.8l10.9-24.6c.3-.7 1.1-1 1.8-.7.7.3 1 1.1.7 1.8zm12 12.7-6.8 6.8c-.3.3-.6.4-1 .4s-.7-.1-1-.4c-.5-.5-.5-1.4 0-1.9l5.9-5.9-5.8-5.8c-.5-.5-.5-1.4 0-1.9s1.4-.5 1.9 0l6.8 6.8c.5.5.5 1.4 0 1.9z"/></symbol><symbol viewBox="0 0 100 100" xml:space="preserve" id="file-doc" xmlns="http://www.w3.org/2000/svg"><path d="M62.6 27.7c0 1.1.9 1.9 1.9 1.9H74c-.1-.1-.2-.3-.3-.4L63 18.6c-.1-.1-.3-.2-.4-.3v9.4z"/><path d="M64.6 32.4c-2.6 0-4.7-2.1-4.7-4.7V17.4h-30c-2.3 0-4.1 1.8-4.1 4.1v57.2c0 2.3 1.8 4.1 4.1 4.1h40.9c2.3 0 4.1-1.8 4.1-4.1V32.4H64.6zm-32 19.1h27.3v2.7H32.6v-2.7zm19.1 23.2H32.6V72h19.1v2.7zm16.4-6.8H32.6v-2.7h35.5v2.7zm0-6.9H32.6v-2.7h35.5V61zm0-13.6H32.6v-2.7h35.5v2.7zm0-6.8H32.6v-2.7h35.5v2.7z"/></symbol><symbol viewBox="0 0 100 100" xml:space="preserve" id="file-file" xmlns="http://www.w3.org/2000/svg"><path d="M64.1 29.5h10.1c-.1-.1-.2-.3-.3-.4L63.1 18.4c-.1-.1-.3-.2-.4-.3v10.1c0 .7.6 1.3 1.4 1.3z"/><path d="M64.1 32.3c-2.3 0-4.1-1.8-4.1-4.1v-11H29.9c-2.3 0-4.1 1.8-4.1 4.1v57.4c0 2.3 1.8 4.1 4.1 4.1h41c2.3 0 4.1-1.8 4.1-4.1V32.3H64.1z"/></symbol><symbol viewBox="0 0 100 100" xml:space="preserve" id="file-folder" xmlns="http://www.w3.org/2000/svg"><path d="M19.8 42.4V73c0 2.1 1.7 3.8 3.8 3.8h53.5c2.1 0 3.8-1.7 3.8-3.8V42.4H19.8zM81 39.8v-6.4c0-2.1-1.7-3.8-3.8-3.8H43.8c-.3 0-.7-.1-.9-.4L38 24.4c-.7-.7-1.7-1.1-2.7-1.1H23.6c-2.1 0-3.8 1.7-3.8 3.8v12.7H81z"/></symbol><symbol viewBox="0 0 100 100" xml:space="preserve" id="file-image" xmlns="http://www.w3.org/2000/svg"><path d="M64.1 29.6h10.1c-.1-.1-.2-.3-.3-.4L63.1 18.5c-.1-.1-.3-.2-.4-.3v9.9c0 .8.6 1.5 1.4 1.5z"/><path d="M64.1 32.3c-2.3 0-4.1-1.9-4.1-4.2V17.3H29.9c-2.3 0-4.1 1.8-4.1 4.1v57.3c0 2.3 1.8 4.1 4.1 4.1h41c2.3 0 4.1-1.8 4.1-4.1V32.3H64.1zm-22.6 9.5c2.6 0 4.8 2.1 4.8 4.8 0 2.6-2.1 4.8-4.8 4.8s-4.8-2.1-4.8-4.8c0-2.6 2.2-4.8 4.8-4.8zm22.6 27.4H34l12.4-15.9 4.2 5.6 13.5-14.3v24.6z"/></symbol><symbol viewBox="0 0 100 100" xml:space="preserve" id="file-media" xmlns="http://www.w3.org/2000/svg"><path d="M64.1 29.5h10.1c-.1-.1-.2-.3-.3-.4L63.1 18.4c-.1-.1-.3-.2-.4-.3v10.1c0 .7.6 1.3 1.4 1.3zM56.8 54.3l-8.2-5.5c-.4-.3-1-.3-1.4-.1-.4.2-.7.7-.7 1.2v10.9c0 .5.3 1 .7 1.2.2.1.4.2.7.2.3 0 .5-.1.8-.2l8.2-5.5c.4-.3.6-.7.6-1.1-.1-.4-.4-.8-.7-1.1z"/><path d="M64.1 32.3c-2.3 0-4.1-1.8-4.1-4.1v-11H29.9c-2.3 0-4.1 1.8-4.1 4.1v57.4c0 2.3 1.8 4.1 4.1 4.1h41c2.3 0 4.1-1.8 4.1-4.1V32.3H64.1zM50.5 70.8c-8.4 0-15.2-6.8-15.2-15.2 0-8.4 6.8-15.2 15.2-15.2 8.4 0 15.2 6.8 15.2 15.2 0 8.4-6.8 15.2-15.2 15.2z"/></symbol><symbol viewBox="0 0 100 100" xml:space="preserve" id="file-up" xmlns="http://www.w3.org/2000/svg"><path d="M66.9 70.2H48.7V45h14L46.2 22.9 29.7 45h14v27.6c0 1.4 1.1 2.5 2.5 2.5h20.7c1.4 0 2.5-1.1 2.5-2.5s-1.1-2.4-2.5-2.4z"/></symbol><symbol viewBox="0 0 100 100" xml:space="preserve" id="file-video" xmlns="http://www.w3.org/2000/svg"><path d="M64.1 29.5h10.1c-.1-.1-.2-.3-.3-.4L63.1 18.4c-.1-.1-.3-.2-.4-.3v10.1c0 .7.6 1.3 1.4 1.3zM56.8 54.3l-8.2-5.5c-.4-.3-1-.3-1.4-.1-.4.2-.7.7-.7 1.2v10.9c0 .5.3 1 .7 1.2.2.1.4.2.7.2.3 0 .5-.1.8-.2l8.2-5.5c.4-.3.6-.7.6-1.1-.1-.4-.4-.8-.7-1.1z"/><path d="M64.1 32.3c-2.3 0-4.1-1.8-4.1-4.1v-11H29.9c-2.3 0-4.1 1.8-4.1 4.1v57.4c0 2.3 1.8 4.1 4.1 4.1h41c2.3 0 4.1-1.8 4.1-4.1V32.3H64.1zM50.5 70.8c-8.4 0-15.2-6.8-15.2-15.2 0-8.4 6.8-15.2 15.2-15.2 8.4 0 15.2 6.8 15.2 15.2 0 8.4-6.8 15.2-15.2 15.2z"/></symbol><symbol viewBox="0 0 50 50" xml:space="preserve" id="input-checkbox" xmlns="http://www.w3.org/2000/svg"><path d="m22.5 37.7-12.2-9.8 3.8-4.6 7.4 5.8 13.9-18.3 4.8 3.6z"/></symbol><symbol viewBox="0 0 40 40" xml:space="preserve" id="input-delete" xmlns="http://www.w3.org/2000/svg"><path d="M23.8 11.5V8.3h-8v3.1H9.2v1.7h1.9l1.4 18.5h14.6l1.4-18.5h2.3v-1.7c0 .1-7 .1-7 .1zM22.1 10v1.4h-4.7V10h4.7zm-8 20-1.3-16.8h14.1L25.6 30H14.1z"/><path d="M18.9 15.6h1.7v12.1h-1.7zM22.048 27.672l.656-12.081 1.697.092-.656 12.082zM15.273 15.553l1.698-.092.654 12.082-1.697.092z"/></symbol><symbol viewBox="0 0 50 50" xml:space="preserve" id="input-radio" xmlns="http://www.w3.org/2000/svg"><circle cx="25" cy="25" r="13.2"/></symbol><symbol viewBox="0 0 50 50" id="input-select" xmlns="http://www.w3.org/2000/svg"><path d="m25 29.4-7.2-7.2 1.5-1.5 5.7 5.7 5.7-5.7 1.5 1.5-7.2 7.2Z"/></symbol><symbol viewBox="0 0 50 50" xml:space="preserve" id="input-select-check" xmlns="http://www.w3.org/2000/svg"><path d="M22.1 39.5 8.6 28.7l4.2-5.2 8.1 6.6L36.4 9.8l5.2 4z"/></symbol><symbol viewBox="0 0 50 50" xml:space="preserve" id="slider-button" xmlns="http://www.w3.org/2000/svg"><path d="m33.5 24.7-12.7 13-1.9-1.9 10.7-11.1-10.7-11 1.9-1.9 12.7 12.9z"/></symbol><symbol viewBox="0 0 100 100" id="social-apple" xmlns="http://www.w3.org/2000/svg"><path data-name="" d="M50.9 27c3.2 0 7.2-2.1 9.5-5 2.1-2.6 3.7-6.2 3.7-9.9s0-1-.1-1.4c-3.5.1-7.8 2.4-10.3 5.4-2 2.3-3.9 5.9-3.9 9.5s0 1.1.1 1.3h.9ZM39.7 81.2c4.3 0 6.3-2.9 11.7-2.9s6.7 2.8 11.6 2.8 7.9-4.4 10.9-8.7c3.4-4.9 4.7-9.8 4.8-10-.3 0-9.4-3.8-9.4-14.2s7.2-13.1 7.6-13.4c-4.7-6.8-12-7-13.9-7-5.3 0-9.7 3.2-12.4 3.2s-6.9-3-11.5-3c-8.8 0-17.7 7.3-17.7 21s3.3 17.5 7.4 23.3c3.5 4.9 6.5 9 10.9 9Z"/></symbol><symbol viewBox="0 0 100 100" xml:space="preserve" id="social-copy" xmlns="http://www.w3.org/2000/svg"><path d="m54.1 64.7 4.5 4.5-3.1 3.1c-3.9 4.1-9.2 6.2-14.4 6.2-5 0-9.9-1.8-13.8-5.5-7.7-8.1-7.4-20.8.6-28.4l3.1-3.1 4.5 4.5-3.3 3c-5.5 5.3-5.8 14-.6 19.4 5.4 5.1 14.1 4.8 19.3-.6l3.2-3.1zm18.7-37.6c-8-7.6-20.7-7.3-28.3.7l-3.1 3.1 4.5 4.5 3.2-3.2c5.2-5.5 13.9-5.7 19.3-.6 5.2 5.5 5 14.2-.6 19.4l-3.1 3.1 4.5 4.5 3.1-3.1c7.9-7.6 8.2-20.3.5-28.4zM37.3 58.2l4.5 4.5 20.9-20.9-4.5-4.5-20.9 20.9z"/></symbol><symbol viewBox="0 0 100 100" xml:space="preserve" id="social-facebook" xmlns="http://www.w3.org/2000/svg"><path d="M66.8 28.4h-5.9c-3.4-.3-6.3 2.2-6.7 5.5v9.7h12.1l-2 12.7h-10v31.5H40.6V56.3H29.2V43.6h11.5v-9.5c0-9.5 5.6-17.4 15.7-16.7l10.5.5-.1 10.5z"/></symbol><symbol viewBox="0 0 100 100" xml:space="preserve" id="social-instagram" xmlns="http://www.w3.org/2000/svg"><path d="M67.2 29.2c-2.1 0-3.7 1.7-3.7 3.7 0 2.1 1.7 3.7 3.7 3.7s3.6-1.6 3.7-3.7c0-2.1-1.7-3.7-3.7-3.7z"/><path d="M64.7 18.2H35.3c-9.5 0-17.2 7.7-17.2 17.2v29.2c0 9.5 7.7 17.2 17.2 17.2h29.4c9.5 0 17.2-7.7 17.2-17.2V35.4c0-9.5-7.7-17.2-17.2-17.2zm11.7 46.3c0 6.6-5.3 11.9-11.9 11.9H35.4c-6.6 0-11.9-5.3-11.9-11.9v-29c0-6.6 5.3-11.9 11.9-11.9h29.2c6.5 0 11.8 5.4 11.8 11.9v29z"/><path d="M50.1 32.7h-.2c-9.4.1-17 7.7-17.1 17.1-.2 9.6 7.5 17.5 17.1 17.6h.7c9.6-.1 17.2-8 17.1-17.6-.1-9.6-8-17.2-17.6-17.1zm0 28.9h-.2c-6.2-.1-11.2-5.1-11.3-11.3-.1-6.4 4.9-11.6 11.3-11.7h.2c6.2.1 11.2 5.1 11.3 11.3.1 6.4-4.9 11.6-11.3 11.7z"/></symbol><symbol viewBox="0 0 100 100" xml:space="preserve" id="social-linkedin" xmlns="http://www.w3.org/2000/svg"><path d="M33.5 77.8H22.2V40h11.3v37.8zm-5.7-43.4c-3.8 0-6.8-3-6.8-6.8s3-6.8 6.8-6.8 6.8 3 6.8 6.8-3.1 6.8-6.8 6.8m50 23.6v19.7H66.7V57.3c.1-4.1-3.1-7.5-7.1-7.6h-.2c-4.3 0-7.9 3.3-8.1 7.6v20.4H40.1V40h11.1v5.3c2.4-3.6 6.4-5.7 10.7-5.7H65c7.1 0 12.8 5.7 12.8 12.8V58z"/></symbol><symbol viewBox="0 0 100 100" xml:space="preserve" id="social-mail" xmlns="http://www.w3.org/2000/svg"><path d="M76.4 28.9H23.6c-2.7 0-4.8 2.2-4.8 4.9v32.5c0 2.7 2.2 4.8 4.8 4.8h52.8c2.7 0 4.8-2.2 4.8-4.9V33.8c0-2.7-2.1-4.9-4.8-4.9zm-5.8 5.4L50 50 28.7 34.3h41.9zm5.3 31.4H24.1V37.6l24.3 17.9c.5.3 1 .5 1.6.5.6 0 1.2-.2 1.6-.5L75.9 37v28.7z"/></symbol><symbol viewBox="0 0 100 100" xml:space="preserve" id="social-pinterest" xmlns="http://www.w3.org/2000/svg"><path d="M68.6 55c-3.1 3.5-7.4 5.8-12 6.4-4.2.7-8.5-.5-11.8-3.2-.2-.1-.3-.3-.5-.5l-.4-.5c-.6 1.7-1.1 3.4-1.7 5.1-1.5 4.9-3.4 9.6-5.8 14.1-1.3 2.2-2.9 4.3-4.3 6.4l-.2-.1c-.1-1.1-.2-2.2-.4-3.3-.4-3.9 0-7.9 1.2-11.7 1.5-5.7 3.2-11.3 4.7-16.9.4-1.6.7-3.2 1-4.8.1-.6 0-1.2-.2-1.8-.9-2.7-.9-5.7.1-8.4.8-2.5 2.8-4.4 5.3-4.9 2.6-.7 5.2.9 5.8 3.5.2.7.2 1.4.1 2-.6 3.8-1.6 7.5-2.9 11.2-.5 1.3-.6 2.8-.2 4.2.3.9.9 1.6 1.7 2.1 2.4 1.4 5.3 1.8 8 1.2 1.9-.5 3.6-1.7 4.8-3.2 3.7-4.4 5.2-10.1 4.2-15.8-.7-4.6-3.9-8.5-8.3-10-5.9-2.4-12.6-2-18.2 1.1-3.7 1.8-6.2 5.4-6.6 9.5-.6 3.8-.2 7.7 1.2 11.3.4 1 .5 2 .1 3-.2.6-.3 1.2-.5 1.8-1.7-.7-3.2-1.8-4.4-3.3-2.6-3.4-3.8-7.6-3.4-11.9.6-7.6 5.2-14.3 12.1-17.6 3.6-1.7 7.5-2.7 11.5-2.8.2 0 .4 0 .6-.1h3.1c1.1.1 2.2.2 3.2.4 6.2.7 11.9 4 15.6 9.1 1.9 2.7 3.1 5.8 3.5 9.1 1.3 7-1 14.2-6 19.3"/></symbol><symbol id="social-whatsapp" viewBox="0 0 100 100" xml:space="preserve" xmlns="http://www.w3.org/2000/svg"><path class="bqst0" d="M62.1 53.4c-1.2-1-2.9-1.4-4.4-1-1.2.5-1.9 2.3-2.6 3.2-.3.5-.9.6-1.4.3-4.2-1.7-7.7-4.7-10-8.6-.4-.5-.3-1.2.2-1.7.8-.8 1.5-1.8 1.8-3 .1-1.2-.2-2.4-.8-3.5-.5-1.5-1.4-2.9-2.6-3.9-1.3-.6-2.8-.4-3.8.6-1.8 1.6-2.8 3.8-2.7 6.2 0 .7.1 1.3.2 2 .4 1.5 1.1 3 1.9 4.3.6 1 1.3 2 2 3 2.3 3.2 5.2 5.9 8.5 7.9 1.7 1 3.5 1.9 5.3 2.5 1.9.9 4.1 1.2 6.2 1 2.4-.4 4.5-1.9 5.6-4.2.3-.7.4-1.4.3-2.1-.5-1.4-2.5-2.3-3.7-3z"/><path class="bqst0" d="M77.7 34.2c-8.2-15-27-20.4-42-12.2S15.3 49 23.5 64L19 80.8l16.8-4.5c9.2 5 20.4 5 29.7-.1 15-8.3 20.5-27.1 12.2-42zm-5.5 27.7c-7.1 11.9-22.5 15.8-34.4 8.7l-1-.6-9.4 2.5 2.5-9.4-.6-1.1c-4.9-8-4.9-17.9-.1-25.9 7.1-11.9 22.5-15.8 34.4-8.6 11.8 7.1 15.7 22.5 8.6 34.4z"/></symbol><symbol viewBox="0 0 100 100" xml:space="preserve" id="social-x" xmlns="http://www.w3.org/2000/svg"><path d="M60.5 76.6 46.3 55.9 28.6 76.6H24L44.3 53 24 23.4h15.5L52.9 43l16.8-19.5h4.6L54.9 45.9 76 76.6H60.5zm-8-27.9 17.2 24.6h-7l-14-20-2.1-2.9-16.4-23.5h7.1l13.2 18.9 2 2.9z"/></symbol><symbol viewBox="0 0 100 100" xml:space="preserve" id="social-xing" xmlns="http://www.w3.org/2000/svg"><path d="M35.2 61.8c-.5 1.1-1.7 1.8-2.9 1.7h-8.7c-.3 0-.6 0-.8-.1-.7-.1-1.2-.8-1-1.5v-.2c.1-.3.2-.6.4-.8 3.2-5.7 6.4-11.4 9.7-17 .2-.3.2-.8 0-1.2-2-3.4-3.9-6.8-5.9-10.2-.1-.2-.2-.3-.3-.5-.6-1.2-.1-2.1 1.2-2.1h9.4c1.1-.1 2.1.5 2.7 1.5 2.2 3.9 4.5 7.8 6.7 11.6.1.2 0 .5-.1.7-2.6 4.7-5.2 9.3-7.9 13.9-.9 1.4-1.7 2.8-2.5 4.2M78 19.2 57.3 55.8c-.3.4-.3.9 0 1.3 4.3 7.9 8.7 15.8 13 23.7.2.3.3.7.4 1.1.1.8-.3 1.1-.9 1.4H59c-1-.4-1.8-1.1-2.3-2.1-4.4-8.1-8.8-16.2-13.3-24.3-.2-.3-.2-.7 0-.9 7-12.4 14.1-24.9 21.1-37.3.6-1.3 2-2.1 3.4-2 2.8.1 5.7 0 8.5 0 1.9-.1 2.5.9 1.6 2.5"/></symbol><symbol viewBox="0 0 100 100" xml:space="preserve" id="social-youtube" xmlns="http://www.w3.org/2000/svg"><path d="M80.2 37.7c-.9-7.1-4.5-8.3-11.6-8.9-6.2-.5-13.1-.7-18.5-.7s-12.5.2-18.5.7c-7 .6-10.7 1.8-11.7 8.9a124.558 124.558 0 0 0 0 24.4c.9 7.2 4.6 8.3 11.7 8.9 6 .6 13 .7 18.4.7s12.4-.1 18.5-.7c7-.6 10.6-1.7 11.6-8.9.6-4 .8-8.1.8-12.2.1-4.1-.2-8.2-.7-12.2zM43.9 59.3V40.8l16 9.2-16 9.3z"/></symbol></svg>