<?xml version="1.0" encoding="UTF-8"?><svg xmlns="http://www.w3.org/2000/svg" xmlns:xlink="http://www.w3.org/1999/xlink"><symbol viewBox="0 0 283.5 198.4" id="app-logo" xmlns="http://www.w3.org/2000/svg"><path d="M256 113.3c0 11.7-3.7 25.6-21.4 25.6h-7.4c-14 0-21.6-9.1-21.6-25.7V74.4h-13.7v38.7c0 24.2 13.5 39.2 35.2 39.2h7.4c21.7 0 35.2-15 35.2-39.2V74.4H256v38.9ZM101.9 109.7v7.4c0 21.7 15 35.2 39.2 35.2h38.7v-13.7H141c-11.7 0-25.6-3.7-25.6-21.4v-7.4c0-14 9.1-21.6 25.7-21.6h38.7V74.5h-38.7c-24.2 0-39.2 13.5-39.2 35.3ZM56.6 74.4h-7.4c-21.7 0-35.2 15-35.2 39.2v38.7h13.7v-38.8c0-11.7 3.7-25.6 21.4-25.6h7.4c14 0 21.6 9.1 21.6 25.7v38.7h13.7v-38.7c0-24.2-13.5-39.2-35.3-39.2Z" style="fill:#378adc"/><path d="M27.8 74.4V42.7H14.2v47.9c3.2-7.6 8.1-13 13.6-16.2Z" style="fill:#378adc"/></symbol><symbol viewBox="0 0 146.5 39" id="mapping-separator" xmlns="http://www.w3.org/2000/svg"><path d="M3.2 19.5C3.2 29.2 11 37 20.7 37s17.5-7.8 17.5-17.5S30.4 2 20.7 2 3.2 9.8 3.2 19.5Zm105.1 0c0 9.7 7.8 17.5 17.5 17.5s17.5-7.8 17.5-17.5S135.5 2 125.8 2s-17.5 7.8-17.5 17.5Zm-87.6 3.3h105.1v-6.6H20.7v6.6Z" style="fill:#378adc"/></symbol></svg>