<?xml version="1.0" encoding="utf-8"?>
<!-- Generator: Adobe Illustrator 28.1.0, SVG Export Plug-In . SVG Version: 6.00 Build 0)  -->
<svg version="1.1" id="Ebene_1" xmlns="http://www.w3.org/2000/svg" xmlns:xlink="http://www.w3.org/1999/xlink" x="0px" y="0px"
	 width="40px" height="40px" viewBox="0 0 40 40" style="enable-background:new 0 0 40 40;" xml:space="preserve">
<path d="M23.8,11.5V8.3h-8v3.1H9.2v1.7h1.9l1.4,18.5h14.6l1.4-18.5h2.3v-1.7C30.8,11.5,23.8,11.5,23.8,11.5z M22.1,10v1.4h-4.7V10
	H22.1z M14.1,30l-1.3-16.8h14.1L25.6,30H14.1z"/>
<rect x="18.9" y="15.6" width="1.7" height="12.1"/>
<rect x="17.1" y="20.8" transform="matrix(5.421845e-02 -0.9985 0.9985 5.421845e-02 0.3518 43.619)" width="12.1" height="1.7"/>
<rect x="15.6" y="15.5" transform="matrix(0.9985 -5.409586e-02 5.409586e-02 0.9985 -1.142 0.92)" width="1.7" height="12.1"/>
</svg>
