<?xml version="1.0" encoding="utf-8"?>
<!-- Generator: Adobe Illustrator 28.1.0, SVG Export Plug-In . SVG Version: 6.00 Build 0)  -->
<svg version="1.1" id="Ebene_1" xmlns="http://www.w3.org/2000/svg" xmlns:xlink="http://www.w3.org/1999/xlink" x="0px" y="0px"
	 width="40px" height="40px" viewBox="0 0 40 40" style="enable-background:new 0 0 40 40;" xml:space="preserve">
<style type="text/css">
	.st0{fill-rule:evenodd;clip-rule:evenodd;}
</style>
<path d="M6.3,20.2c9.8-9.5,17.6-9.6,27.5,0C23.8,29.2,16.1,29.1,6.3,20.2z M25.1,15.6c2.1,2.5,2.1,6.3-0.1,8.8
	c2.3-0.9,4.1-2.3,6.4-4.3C29.1,18,27.5,16.6,25.1,15.6z M15,24.4c-2.2-2.5-2.2-6.3-0.1-8.8c-2.3,1-4.1,2.4-6.3,4.5
	C10.9,22.1,12.7,23.6,15,24.4z M23.6,16.4c-3.2-3.3-8.7-1-8.7,3.6c0,4.5,5.5,6.8,8.7,3.6C25.7,21.6,25.7,18.4,23.6,16.4z"/>
<path class="st0" d="M19.9,16.4c-2,0-3.5,1.7-3.5,3.6s1.5,3.5,3.5,3.5c2.4,0,4.2-2.3,3.5-4.5c-0.7,1.8-3.3,1.3-3.3-0.6
	c0-0.9,0.6-1.5,1.4-1.8C21,16.5,20.6,16.4,19.9,16.4z"/>
</svg>
