<?xml version="1.0" encoding="utf-8"?>
<!-- Generator: Adobe Illustrator 28.2.0, SVG Export Plug-In . SVG Version: 6.00 Build 0)  -->
<svg version="1.1" id="Ebene_1" xmlns="http://www.w3.org/2000/svg" xmlns:xlink="http://www.w3.org/1999/xlink" x="0px" y="0px"
	 viewBox="0 0 100 100" style="enable-background:new 0 0 100 100;" xml:space="preserve">
<style type="text/css">
	.st0{fill-rule:evenodd;clip-rule:evenodd;}
</style>
<path class="st0" d="M62.1,53.4c-1.2-1-2.9-1.4-4.4-1c-1.2,0.5-1.9,2.3-2.6,3.2c-0.3,0.5-0.9,0.6-1.4,0.3c-4.2-1.7-7.7-4.7-10-8.6
	c-0.4-0.5-0.3-1.2,0.2-1.7c0.8-0.8,1.5-1.8,1.8-3c0.1-1.2-0.2-2.4-0.8-3.5c-0.5-1.5-1.4-2.9-2.6-3.9c-1.3-0.6-2.8-0.4-3.8,0.6
	c-1.8,1.6-2.8,3.8-2.7,6.2c0,0.7,0.1,1.3,0.2,2c0.4,1.5,1.1,3,1.9,4.3c0.6,1,1.3,2,2,3c2.3,3.2,5.2,5.9,8.5,7.9
	c1.7,1,3.5,1.9,5.3,2.5c1.9,0.9,4.1,1.2,6.2,1c2.4-0.4,4.5-1.9,5.6-4.2h0c0.3-0.7,0.4-1.4,0.3-2.1C65.3,55,63.3,54.1,62.1,53.4z"/>
<path class="st0" d="M77.7,34.2c-8.2-15-27-20.4-42-12.2c-15,8.2-20.4,27-12.2,42l-4.5,16.8l16.8-4.5c9.2,5,20.4,5,29.7-0.1l0,0
	C80.5,67.9,86,49.1,77.7,34.2z M72.2,61.9c-7.1,11.9-22.5,15.8-34.4,8.7L36.8,70l-9.4,2.5l2.5-9.4l-0.6-1.1
	c-4.9-8-4.9-17.9-0.1-25.9c7.1-11.9,22.5-15.8,34.4-8.6C75.4,34.6,79.3,50,72.2,61.9z"/>
</svg>
