<?xml version="1.0" encoding="utf-8"?>
<!-- Generator: Adobe Illustrator 28.2.0, SVG Export Plug-In . SVG Version: 6.00 Build 0)  -->
<svg version="1.1" id="Ebene_1" xmlns="http://www.w3.org/2000/svg" xmlns:xlink="http://www.w3.org/1999/xlink" x="0px" y="0px"
	 viewBox="0 0 100 100" style="enable-background:new 0 0 100 100;" xml:space="preserve">
<path d="M54.1,64.7l4.5,4.5l-3.1,3.1c-3.9,4.1-9.2,6.2-14.4,6.2c-5,0-9.9-1.8-13.8-5.5c-7.7-8.1-7.4-20.8,0.6-28.4l3.1-3.1l4.5,4.5
	L32.2,49c-5.5,5.3-5.8,14-0.6,19.4c5.4,5.1,14.1,4.8,19.3-0.6L54.1,64.7z M72.8,27.1c-8-7.6-20.7-7.3-28.3,0.7l-3.1,3.1l4.5,4.5
	l3.2-3.2c5.2-5.5,13.9-5.7,19.3-0.6c5.2,5.5,5,14.2-0.6,19.4l-3.1,3.1l4.5,4.5l3.1-3.1C80.2,47.9,80.5,35.2,72.8,27.1z M37.3,58.2
	l4.5,4.5l20.9-20.9l-4.5-4.5L37.3,58.2z"/>
</svg>
