<?xml version="1.0" encoding="utf-8"?>
<!-- Generator: Adobe Illustrator 28.2.0, SVG Export Plug-In . SVG Version: 6.00 Build 0)  -->
<svg version="1.1" id="Ebene_1" xmlns="http://www.w3.org/2000/svg" xmlns:xlink="http://www.w3.org/1999/xlink" x="0px" y="0px"
	 viewBox="0 0 100 100" style="enable-background:new 0 0 100 100;" xml:space="preserve">
<style type="text/css">
	.st0{fill-rule:evenodd;clip-rule:evenodd;}
</style>
<path id="Pfad_6326" class="st0" d="M68.6,55c-3.1,3.5-7.4,5.8-12,6.4c-4.2,0.7-8.5-0.5-11.8-3.2c-0.2-0.1-0.3-0.3-0.5-0.5l-0.4-0.5
	c-0.6,1.7-1.1,3.4-1.7,5.1c-1.5,4.9-3.4,9.6-5.8,14.1c-1.3,2.2-2.9,4.3-4.3,6.4l-0.2-0.1c-0.1-1.1-0.2-2.2-0.4-3.3
	c-0.4-3.9,0-7.9,1.2-11.7c1.5-5.7,3.2-11.3,4.7-16.9c0.4-1.6,0.7-3.2,1-4.8c0.1-0.6,0-1.2-0.2-1.8c-0.9-2.7-0.9-5.7,0.1-8.4
	c0.8-2.5,2.8-4.4,5.3-4.9c2.6-0.7,5.2,0.9,5.8,3.5c0.2,0.7,0.2,1.4,0.1,2c-0.6,3.8-1.6,7.5-2.9,11.2c-0.5,1.3-0.6,2.8-0.2,4.2
	c0.3,0.9,0.9,1.6,1.7,2.1c2.4,1.4,5.3,1.8,8,1.2c1.9-0.5,3.6-1.7,4.8-3.2c3.7-4.4,5.2-10.1,4.2-15.8c-0.7-4.6-3.9-8.5-8.3-10
	c-5.9-2.4-12.6-2-18.2,1.1c-3.7,1.8-6.2,5.4-6.6,9.5c-0.6,3.8-0.2,7.7,1.2,11.3c0.4,1,0.5,2,0.1,3c-0.2,0.6-0.3,1.2-0.5,1.8
	c-1.7-0.7-3.2-1.8-4.4-3.3c-2.6-3.4-3.8-7.6-3.4-11.9C25.6,30,30.2,23.3,37.1,20c3.6-1.7,7.5-2.7,11.5-2.8c0.2,0,0.4,0,0.6-0.1h3.1
	c1.1,0.1,2.2,0.2,3.2,0.4c6.2,0.7,11.9,4,15.6,9.1c1.9,2.7,3.1,5.8,3.5,9.1C75.9,42.7,73.6,49.9,68.6,55"/>
</svg>
