<?xml version="1.0" encoding="utf-8"?>
<!-- Generator: Adobe Illustrator 28.2.0, SVG Export Plug-In . SVG Version: 6.00 Build 0)  -->
<svg version="1.1" id="Ebene_1" xmlns="http://www.w3.org/2000/svg" xmlns:xlink="http://www.w3.org/1999/xlink" x="0px" y="0px"
	 viewBox="0 0 100 100" style="enable-background:new 0 0 100 100;" xml:space="preserve">
<style type="text/css">
	.st0{fill-rule:evenodd;clip-rule:evenodd;}
</style>
<path class="st0" d="M76.4,28.9H23.6h0c-2.7,0-4.8,2.2-4.8,4.9v32.5c0,2.7,2.2,4.8,4.8,4.8h52.8c2.7,0,4.8-2.2,4.8-4.9V33.8
	C81.2,31.1,79.1,28.9,76.4,28.9z M70.6,34.3L50,50L28.7,34.3H70.6z M75.9,65.7H24.1V37.6l24.3,17.9c0.5,0.3,1,0.5,1.6,0.5
	c0.6,0,1.2-0.2,1.6-0.5L75.9,37V65.7z"/>
</svg>
