<?xml version="1.0" encoding="utf-8"?>
<!-- Generator: Adobe Illustrator 28.2.0, SVG Export Plug-In . SVG Version: 6.00 Build 0)  -->
<svg version="1.1" id="Ebene_1" xmlns="http://www.w3.org/2000/svg" xmlns:xlink="http://www.w3.org/1999/xlink" x="0px" y="0px"
	 viewBox="0 0 100 100" style="enable-background:new 0 0 100 100;" xml:space="preserve">
<style type="text/css">
	.st0{fill-rule:evenodd;clip-rule:evenodd;}
</style>
<path id="Pfad_6320" class="st0" d="M35.2,61.8c-0.5,1.1-1.7,1.8-2.9,1.7c-2.9,0-5.8,0-8.7,0c-0.3,0-0.6,0-0.8-0.1
	c-0.7-0.1-1.2-0.8-1-1.5c0-0.1,0-0.1,0-0.2c0.1-0.3,0.2-0.6,0.4-0.8c3.2-5.7,6.4-11.4,9.7-17c0.2-0.3,0.2-0.8,0-1.2
	c-2-3.4-3.9-6.8-5.9-10.2c-0.1-0.2-0.2-0.3-0.3-0.5c-0.6-1.2-0.1-2.1,1.2-2.1c0.2,0,0.3,0,0.5,0h4.4c1.5,0,3,0,4.5,0
	c1.1-0.1,2.1,0.5,2.7,1.5c2.2,3.9,4.5,7.8,6.7,11.6c0.1,0.2,0,0.5-0.1,0.7c-2.6,4.7-5.2,9.3-7.9,13.9C36.8,59,36,60.4,35.2,61.8
	 M78,19.2c-6.9,12.2-13.8,24.4-20.7,36.6c-0.3,0.4-0.3,0.9,0,1.3c4.3,7.9,8.7,15.8,13,23.7c0.2,0.3,0.3,0.7,0.4,1.1
	c0.1,0.8-0.3,1.1-0.9,1.4H59c-1-0.4-1.8-1.1-2.3-2.1c-4.4-8.1-8.8-16.2-13.3-24.3c-0.2-0.3-0.2-0.7,0-0.9
	c7-12.4,14.1-24.9,21.1-37.3c0.6-1.3,2-2.1,3.4-2c2.8,0.1,5.7,0,8.5,0C78.3,16.6,78.9,17.6,78,19.2"/>
</svg>
