<?xml version="1.0" encoding="utf-8"?>
<!-- Generator: Adobe Illustrator 28.2.0, SVG Export Plug-In . SVG Version: 6.00 Build 0)  -->
<svg version="1.1" id="Ebene_1" xmlns="http://www.w3.org/2000/svg" xmlns:xlink="http://www.w3.org/1999/xlink" x="0px" y="0px"
	 viewBox="0 0 100 100" style="enable-background:new 0 0 100 100;" xml:space="preserve">
<path d="M67.2,29.2c-2.1,0-3.7,1.7-3.7,3.7c0,2.1,1.7,3.7,3.7,3.7s3.6-1.6,3.7-3.7C70.9,30.8,69.2,29.2,67.2,29.2z"/>
<path d="M64.7,18.2H35.3c-9.5,0-17.2,7.7-17.2,17.2v29.2c0,9.5,7.7,17.2,17.2,17.2h29.4c9.5,0,17.2-7.7,17.2-17.2V35.4
	C81.9,25.9,74.2,18.2,64.7,18.2z M76.4,64.5c0,6.6-5.3,11.9-11.9,11.9H35.4c-6.6,0-11.9-5.3-11.9-11.9v-29c0-6.6,5.3-11.9,11.9-11.9
	h29.2c6.5,0,11.8,5.4,11.8,11.9V64.5z"/>
<path d="M50.1,32.7h-0.2c-9.4,0.1-17,7.7-17.1,17.1c-0.2,9.6,7.5,17.5,17.1,17.6h0.2h0.5c9.6-0.1,17.2-8,17.1-17.6
	C67.6,40.2,59.7,32.6,50.1,32.7z M50.1,61.6h-0.2c-6.2-0.1-11.2-5.1-11.3-11.3c-0.1-6.4,4.9-11.6,11.3-11.7h0.2
	c6.2,0.1,11.2,5.1,11.3,11.3C61.5,56.3,56.5,61.5,50.1,61.6z"/>
</svg>
