<?xml version="1.0" encoding="utf-8"?>
<!-- Generator: Adobe Illustrator 28.2.0, SVG Export Plug-In . SVG Version: 6.00 Build 0)  -->
<svg version="1.1" id="Ebene_1" xmlns="http://www.w3.org/2000/svg" xmlns:xlink="http://www.w3.org/1999/xlink" x="0px" y="0px"
	 viewBox="0 0 100 100" style="enable-background:new 0 0 100 100;" xml:space="preserve">
<path d="M80.2,37.7c-0.9-7.1-4.5-8.3-11.6-8.9c-6.2-0.5-13.1-0.7-18.5-0.7c-5.4,0-12.5,0.2-18.5,0.7c-7,0.6-10.7,1.8-11.7,8.9
	c-0.4,4-0.6,8.1-0.6,12.2c0,4.1,0.2,8.1,0.6,12.2c0.9,7.2,4.6,8.3,11.7,8.9c6,0.6,13,0.7,18.4,0.7s12.4-0.1,18.5-0.7
	c7-0.6,10.6-1.7,11.6-8.9c0.6-4,0.8-8.1,0.8-12.2C81,45.8,80.7,41.7,80.2,37.7z M43.9,59.3V40.8l16,9.2L43.9,59.3z"/>
</svg>
