<?xml version="1.0" encoding="utf-8"?>
<!-- Generator: Adobe Illustrator 28.2.0, SVG Export Plug-In . SVG Version: 6.00 Build 0)  -->
<svg version="1.1" id="Ebene_1" xmlns="http://www.w3.org/2000/svg" xmlns:xlink="http://www.w3.org/1999/xlink" x="0px" y="0px"
	 viewBox="0 0 100 100" style="enable-background:new 0 0 100 100;" xml:space="preserve">
<g id="Gruppe_789-2">
	<path id="Pfad_306" d="M33.5,77.8H22.2V40h11.3V77.8z M27.8,34.4c-3.8,0-6.8-3-6.8-6.8s3-6.8,6.8-6.8s6.8,3,6.8,6.8l0,0
		C34.6,31.4,31.5,34.4,27.8,34.4 M77.8,58v19.7H66.7V57.3c0.1-4.1-3.1-7.5-7.1-7.6l0,0h-0.2c-4.3,0-7.9,3.3-8.1,7.6v20.4H40.1V40
		h11.1v5.3c2.4-3.6,6.4-5.7,10.7-5.7H65c7.1,0,12.8,5.7,12.8,12.8V58z"/>
</g>
</svg>
