<?xml version="1.0" encoding="utf-8"?>
<!-- Generator: Adobe Illustrator 25.1.0, SVG Export Plug-In . SVG Version: 6.00 Build 0)  -->
<svg version="1.1" id="Ebene_1" xmlns="http://www.w3.org/2000/svg" xmlns:xlink="http://www.w3.org/1999/xlink" x="0px" y="0px"
	 viewBox="0 0 100 100" style="enable-background:new 0 0 100 100;" xml:space="preserve">
<path d="M64.1,29.5h10.1c-0.1-0.1-0.2-0.3-0.3-0.4L63.1,18.4c-0.1-0.1-0.3-0.2-0.4-0.3v10.1C62.7,28.9,63.3,29.5,64.1,29.5z"/>
<path d="M56.8,54.3l-8.2-5.5c-0.4-0.3-1-0.3-1.4-0.1c-0.4,0.2-0.7,0.7-0.7,1.2v10.9c0,0.5,0.3,1,0.7,1.2c0.2,0.1,0.4,0.2,0.7,0.2
	c0.3,0,0.5-0.1,0.8-0.2l8.2-5.5c0.4-0.3,0.6-0.7,0.6-1.1C57.4,55,57.1,54.6,56.8,54.3z"/>
<path d="M64.1,32.3c-2.3,0-4.1-1.8-4.1-4.1V17.2H29.9c-2.3,0-4.1,1.8-4.1,4.1v57.4c0,2.3,1.8,4.1,4.1,4.1h41c2.3,0,4.1-1.8,4.1-4.1
	V32.3H64.1z M50.5,70.8c-8.4,0-15.2-6.8-15.2-15.2c0-8.4,6.8-15.2,15.2-15.2c8.4,0,15.2,6.8,15.2,15.2C65.7,64,58.9,70.8,50.5,70.8z
	"/>
</svg>
