<?xml version="1.0" encoding="utf-8"?>
<!-- Generator: Adobe Illustrator 25.1.0, SVG Export Plug-In . SVG Version: 6.00 Build 0)  -->
<svg version="1.1" id="Ebene_1" xmlns="http://www.w3.org/2000/svg" xmlns:xlink="http://www.w3.org/1999/xlink" x="0px" y="0px"
	 viewBox="0 0 100 100" style="enable-background:new 0 0 100 100;" xml:space="preserve">
<path d="M62.6,27.7c0,1.1,0.9,1.9,1.9,1.9H74c-0.1-0.1-0.2-0.3-0.3-0.4L63,18.6c-0.1-0.1-0.3-0.2-0.4-0.3V27.7z"/>
<path d="M64.6,32.4c-2.6,0-4.7-2.1-4.7-4.7V17.4h-30c-2.3,0-4.1,1.8-4.1,4.1v57.2c0,2.3,1.8,4.1,4.1,4.1h40.9c2.3,0,4.1-1.8,4.1-4.1
	V32.4H64.6z M32.6,51.5h27.3v2.7H32.6V51.5z M51.7,74.7H32.6V72h19.1V74.7z M68.1,67.9H32.6v-2.7h35.5V67.9z M68.1,61H32.6v-2.7
	h35.5V61z M68.1,47.4H32.6v-2.7h35.5V47.4z M68.1,40.6H32.6v-2.7h35.5V40.6z"/>
</svg>
