<?xml version="1.0" encoding="utf-8"?>
<!-- Generator: Adobe Illustrator 25.1.0, SVG Export Plug-In . SVG Version: 6.00 Build 0)  -->
<svg version="1.1" id="Ebene_1" xmlns="http://www.w3.org/2000/svg" xmlns:xlink="http://www.w3.org/1999/xlink" x="0px" y="0px"
	 viewBox="0 0 100 100" style="enable-background:new 0 0 100 100;" xml:space="preserve">
<path d="M64.1,29.6h10.1c-0.1-0.1-0.2-0.3-0.3-0.4L63.1,18.5c-0.1-0.1-0.3-0.2-0.4-0.3v9.9C62.7,28.9,63.3,29.6,64.1,29.6z"/>
<path d="M64.1,32.3c-2.3,0-4.1-1.9-4.1-4.2V17.3H29.9c-2.3,0-4.1,1.8-4.1,4.1v57.3c0,2.3,1.8,4.1,4.1,4.1h41c2.3,0,4.1-1.8,4.1-4.1
	V32.3H64.1z M41.5,41.8c2.6,0,4.8,2.1,4.8,4.8c0,2.6-2.1,4.8-4.8,4.8s-4.8-2.1-4.8-4.8C36.7,44,38.9,41.8,41.5,41.8z M64.1,69.2H34
	l12.4-15.9l4.2,5.6l13.5-14.3V69.2z"/>
</svg>
