<?xml version="1.0" encoding="UTF-8"?><svg xmlns="http://www.w3.org/2000/svg" xmlns:xlink="http://www.w3.org/1999/xlink"><symbol viewBox="0 0 283.5 198.4" id="backend-logo" xmlns="http://www.w3.org/2000/svg"><path d="M256 113.3c0 11.7-3.7 25.6-21.4 25.6h-7.4c-14 0-21.6-9.1-21.6-25.7V74.4h-13.7v38.7c0 24.2 13.5 39.2 35.2 39.2h7.4c21.7 0 35.2-15 35.2-39.2V74.4H256v38.9ZM101.9 109.7v7.4c0 21.7 15 35.2 39.2 35.2h38.7v-13.7H141c-11.7 0-25.6-3.7-25.6-21.4v-7.4c0-14 9.1-21.6 25.7-21.6h38.7V74.5h-38.7c-24.2 0-39.2 13.5-39.2 35.3ZM56.6 74.4h-7.4c-21.7 0-35.2 15-35.2 39.2v38.7h13.7v-38.8c0-11.7 3.7-25.6 21.4-25.6h7.4c14 0 21.6 9.1 21.6 25.7v38.7h13.7v-38.7c0-24.2-13.5-39.2-35.3-39.2Z" style="fill:#378adc"/><path d="M27.8 74.4V42.7H14.2v47.9c3.2-7.6 8.1-13 13.6-16.2Z" style="fill:#378adc"/></symbol><symbol viewBox="0 0 100 70" style="enable-background:new 0 0 100 70" xml:space="preserve" id="language-de" xmlns="http://www.w3.org/2000/svg"><path d="M0 0h100v70H0z"/><path style="fill:#d00" d="M0 23.3h100V70H0z"/><path style="fill:#ffce00" d="M0 46.7h100V70H0z"/></symbol><symbol viewBox="0 0 100 70" style="enable-background:new 0 0 100 70" xml:space="preserve" id="language-en" xmlns="http://www.w3.org/2000/svg"><path style="fill:#006" d="M-20.2 0h140.4v70H-20.2z"/><path style="fill:#fff" d="M120.2 0h-15.7L61.7 21.3V0H38.3v21.3L-4.5 0h-15.7v7.8l31.1 15.5h-31.1v23.4h31.1l-31.1 15.5V70h15.7l42.8-21.3V70h23.4V48.7L104.5 70h15.7v-7.8L89.1 46.7h31.1V23.3H89.1l31.1-15.5z"/><path style="fill:#c00" d="M120.2 28H57V0H43v28h-63.2v14H43v28h14V42h63.2z"/><path d="m-20.2 70 46.8-23.3h10.5L-9.7 70h-10.5zm0-70 46.8 23.3H16.1L-20.2 5.2V0zm83.1 23.3L109.7 0h10.5L73.4 23.3H62.9zM120.2 70 73.4 46.7h10.5l36.3 18.1V70z" style="fill:#c00"/></symbol></svg>