<?xml version="1.0" encoding="utf-8"?><svg xmlns="http://www.w3.org/2000/svg" xmlns:xlink="http://www.w3.org/1999/xlink"><symbol viewBox="0 0 50 50" xml:space="preserve" id="accordion" xmlns="http://www.w3.org/2000/svg"><path d="m25 29.9-7.2-9.8h14.4z"/></symbol><symbol viewBox="0 0 50 50" xml:space="preserve" id="close" xmlns="http://www.w3.org/2000/svg"><path d="m10.01 11.99 2.05-2.051 28 28-2.05 2.052z"/><path d="m10.01 38.01 28-28 2.05 2.05-28 28.001z"/></symbol><symbol viewBox="0 0 50 50" xml:space="preserve" id="datalist-add" xmlns="http://www.w3.org/2000/svg"><path d="M14.5 23.7h21v2.5h-21z"/><path d="M23.8 14.5h2.5v21h-2.5z"/></symbol><symbol viewBox="0 0 40 40" xml:space="preserve" id="datalist-check" xmlns="http://www.w3.org/2000/svg"><path d="M18.2 29.5c-.2 0-.4-.1-.6-.2l-6.7-5c-.4-.3-.5-1-.2-1.4s1-.5 1.4-.2L18 27l9.3-13c.3-.5.9-.6 1.4-.2.5.3.6.9.2 1.4L19 29c-.2.2-.4.4-.7.4 0 .1 0 .1-.1.1z"/></symbol><symbol viewBox="0 0 40 40" xml:space="preserve" id="datalist-delete" xmlns="http://www.w3.org/2000/svg"><path d="M23.8 11.5V8.3h-8v3.1H9.2v1.7h1.9l1.4 18.5h14.6l1.4-18.5h2.3v-1.7c0 .1-7 .1-7 .1zM22.1 10v1.4h-4.7V10h4.7zm-8 20-1.3-16.8h14.1L25.6 30H14.1z"/><path d="M18.9 15.6h1.7v12.1h-1.7zM22.048 27.672l.656-12.081 1.697.092-.656 12.082zM15.273 15.553l1.698-.092.654 12.082-1.697.092z"/></symbol><symbol viewBox="0 0 40 40" xml:space="preserve" id="datalist-edit" xmlns="http://www.w3.org/2000/svg"><path d="M10.3 30.6c-.2 0-.4-.1-.6-.2-.2-.2-.3-.5-.2-.8l1.8-6.4c0-.1.1-.2.2-.4l12.4-12.4c.6-.6 1.4-.9 2.2-.9s1.6.3 2.2.9l1.4 1.4c.6.6.9 1.4.9 2.2 0 .8-.3 1.6-.9 2.2L17.3 28.5c-.1.1-.2.2-.4.2l-6.4 1.8c-.1.1-.2.1-.2.1zm1.2-2.1 4.7-1.4 9.8-9.8-3.4-3.3-9.8 9.8-1.3 4.7zm15.7-12.3 1.2-1.2c.3-.3.4-.6.4-1s-.1-.7-.4-1L27 11.6c-.3-.3-.6-.4-1-.4s-.7.1-1 .4l-1.2 1.2 3.4 3.4z"/></symbol><symbol viewBox="0 0 40 50" xml:space="preserve" id="datalist-header-direction" xmlns="http://www.w3.org/2000/svg"><path d="M20 38.4 4.4 17.1h31.2z"/></symbol><symbol viewBox="0 0 50 50" xml:space="preserve" id="datalist-header-reload" xmlns="http://www.w3.org/2000/svg"><path d="M25.1 12.4c-3.3 0-6.6 1.4-8.9 3.8l.1-3.6c0-.6-.4-1-1-1.1-.6 0-1 .4-1 1L14 19c0 .3.1.6.3.7.2.2.5.3.8.3l6.4-.1c.3 0 .5-.1.7-.3s.3-.5.3-.7c0-.3-.1-.5-.3-.7-.2-.2-.4-.3-.7-.3l-4.2.1c1.1-1.2 3.9-3.5 7.8-3.5 6.3 0 10.5 5.4 10.5 10.5 0 .6.5 1 1 1 .6 0 1-.5 1-1 0-6.1-5-12.6-12.5-12.6zM34.9 29.9l-6.4.1c-.6 0-1 .5-1 1.1 0 .6.5 1 1 1l4.2-.1c-1.1 1.2-3.9 3.5-7.8 3.5-6.3 0-10.5-5.4-10.5-10.5 0-.6-.5-1-1-1s-1 .5-1 1c0 6.1 5 12.6 12.6 12.6 3.3 0 6.6-1.4 8.9-3.8l-.1 3.6c0 .3.1.5.3.7.2.2.4.3.7.3.6 0 1-.5 1-1L36 31c0-.3-.1-.6-.3-.7-.2-.3-.5-.4-.8-.4z"/></symbol><symbol viewBox="0 0 50 50" xml:space="preserve" id="datalist-header-search" xmlns="http://www.w3.org/2000/svg"><path d="M25.8 12.2C19.3 12.2 14 17.5 14 24c0 2.8 1 5.4 2.6 7.4l-6.2 6.2 2.2 2.2 6.3-6.3c1.9 1.4 4.3 2.3 6.9 2.3 6.5 0 11.8-5.3 11.8-11.8 0-6.5-5.3-11.8-11.8-11.8zm0 21.4c-5.3 0-9.6-4.3-9.6-9.6s4.3-9.6 9.6-9.6 9.6 4.3 9.6 9.6-4.3 9.6-9.6 9.6z"/></symbol><symbol id="datalist-hidden" viewBox="0 0 40 40" xml:space="preserve" xmlns="http://www.w3.org/2000/svg"><path class="ahst0" d="M31 15.4h-1.1v-4.6c0-5.5-4.5-10-10-10s-10 4.5-10 10v4.6H9c-2.5 0-4.4 2-4.4 4.4v14.8C4.6 37 6.6 39 9 39h22c2.4 0 4.4-2 4.4-4.4V19.9c0-2.5-2-4.5-4.4-4.5zm-17.9-4.5c0-3.8 3-6.8 6.8-6.8s6.8 3 6.8 6.8v4.6H13.1v-4.6zm19.1 23.8c0 .7-.5 1.2-1.2 1.2H9c-.7 0-1.3-.5-1.3-1.2V19.9c0-.7.5-1.2 1.3-1.2h22c.7 0 1.2.5 1.2 1.2v14.8z"/><path class="ahst0" d="M20 33c-.9 0-1.6-.7-1.6-1.6v-1.6c-1.6-.6-2.7-2.2-2.7-4 0-2.4 1.9-4.3 4.3-4.3s4.3 1.9 4.3 4.3c0 1.8-1.1 3.4-2.7 4v1.6c0 .9-.7 1.6-1.6 1.6z"/></symbol><symbol viewBox="0 0 40 40" xml:space="preserve" id="datalist-preview" xmlns="http://www.w3.org/2000/svg"><path d="M6.3 20.2c9.8-9.5 17.6-9.6 27.5 0-10 9-17.7 8.9-27.5 0zm18.8-4.6c2.1 2.5 2.1 6.3-.1 8.8 2.3-.9 4.1-2.3 6.4-4.3-2.3-2.1-3.9-3.5-6.3-4.5zM15 24.4c-2.2-2.5-2.2-6.3-.1-8.8-2.3 1-4.1 2.4-6.3 4.5 2.3 2 4.1 3.5 6.4 4.3zm8.6-8c-3.2-3.3-8.7-1-8.7 3.6 0 4.5 5.5 6.8 8.7 3.6 2.1-2 2.1-5.2 0-7.2z"/><path d="M19.9 16.4c-2 0-3.5 1.7-3.5 3.6s1.5 3.5 3.5 3.5c2.4 0 4.2-2.3 3.5-4.5-.7 1.8-3.3 1.3-3.3-.6 0-.9.6-1.5 1.4-1.8-.5-.1-.9-.2-1.6-.2z"/></symbol><symbol viewBox="0 0 40 40" xml:space="preserve" id="datalist-sort" xmlns="http://www.w3.org/2000/svg"><path d="m13.8 26.5 6.2 4.6 6.2-4.6h-5.3v-13h5.3L20 8.9l-6.2 4.6h5.3v13z"/></symbol><symbol viewBox="0 0 100 100" xml:space="preserve" id="file-3d" xmlns="http://www.w3.org/2000/svg"><path d="M64.1 29.5h10.1c-.1-.1-.2-.3-.3-.4L63.1 18.4c-.1-.1-.3-.2-.4-.3v10.1c0 .7.6 1.3 1.4 1.3z"/><path d="M64.1 32.3c-2.3 0-4.1-1.8-4.1-4.1v-11H29.9c-2.3 0-4.1 1.8-4.1 4.1v57.4c0 2.3 1.8 4.1 4.1 4.1h41c2.3 0 4.1-1.8 4.1-4.1V32.3H64.1z"/></symbol><symbol viewBox="0 0 100 100" xml:space="preserve" id="file-code" xmlns="http://www.w3.org/2000/svg"><path d="M64 29.7h10c-.1-.1-.2-.3-.3-.4L63 18.6c-.1-.1-.3-.2-.4-.3v10c0 .8.6 1.4 1.4 1.4z"/><path d="M64 32.4c-2.3 0-4.1-1.8-4.1-4.1V17.4h-30c-2.3 0-4.1 1.8-4.1 4.1v57.2c0 2.3 1.8 4.1 4.1 4.1h40.9c2.3 0 4.1-1.8 4.1-4.1V32.4H64zm-23.3 29c.5.5.5 1.4 0 1.9-.3.3-.6.4-1 .4s-.7-.1-1-.4L32 56.5c-.5-.5-.5-1.4 0-1.9l6.8-6.8c.5-.5 1.4-.5 1.9 0s.5 1.4 0 1.9l-5.9 5.9 5.9 5.8zm16-17.6L45.8 68.4c-.2.5-.7.8-1.2.8-.2 0-.4 0-.6-.1-.7-.3-1-1.1-.7-1.8l10.9-24.6c.3-.7 1.1-1 1.8-.7.7.3 1 1.1.7 1.8zm12 12.7-6.8 6.8c-.3.3-.6.4-1 .4s-.7-.1-1-.4c-.5-.5-.5-1.4 0-1.9l5.9-5.9-5.8-5.8c-.5-.5-.5-1.4 0-1.9s1.4-.5 1.9 0l6.8 6.8c.5.5.5 1.4 0 1.9z"/></symbol><symbol viewBox="0 0 100 100" xml:space="preserve" id="file-doc" xmlns="http://www.w3.org/2000/svg"><path d="M62.6 27.7c0 1.1.9 1.9 1.9 1.9H74c-.1-.1-.2-.3-.3-.4L63 18.6c-.1-.1-.3-.2-.4-.3v9.4z"/><path d="M64.6 32.4c-2.6 0-4.7-2.1-4.7-4.7V17.4h-30c-2.3 0-4.1 1.8-4.1 4.1v57.2c0 2.3 1.8 4.1 4.1 4.1h40.9c2.3 0 4.1-1.8 4.1-4.1V32.4H64.6zm-32 19.1h27.3v2.7H32.6v-2.7zm19.1 23.2H32.6V72h19.1v2.7zm16.4-6.8H32.6v-2.7h35.5v2.7zm0-6.9H32.6v-2.7h35.5V61zm0-13.6H32.6v-2.7h35.5v2.7zm0-6.8H32.6v-2.7h35.5v2.7z"/></symbol><symbol viewBox="0 0 100 100" xml:space="preserve" id="file-file" xmlns="http://www.w3.org/2000/svg"><path d="M64.1 29.5h10.1c-.1-.1-.2-.3-.3-.4L63.1 18.4c-.1-.1-.3-.2-.4-.3v10.1c0 .7.6 1.3 1.4 1.3z"/><path d="M64.1 32.3c-2.3 0-4.1-1.8-4.1-4.1v-11H29.9c-2.3 0-4.1 1.8-4.1 4.1v57.4c0 2.3 1.8 4.1 4.1 4.1h41c2.3 0 4.1-1.8 4.1-4.1V32.3H64.1z"/></symbol><symbol viewBox="0 0 100 100" xml:space="preserve" id="file-folder" xmlns="http://www.w3.org/2000/svg"><path d="M19.8 42.4V73c0 2.1 1.7 3.8 3.8 3.8h53.5c2.1 0 3.8-1.7 3.8-3.8V42.4H19.8zM81 39.8v-6.4c0-2.1-1.7-3.8-3.8-3.8H43.8c-.3 0-.7-.1-.9-.4L38 24.4c-.7-.7-1.7-1.1-2.7-1.1H23.6c-2.1 0-3.8 1.7-3.8 3.8v12.7H81z"/></symbol><symbol viewBox="0 0 100 100" xml:space="preserve" id="file-image" xmlns="http://www.w3.org/2000/svg"><path d="M64.1 29.6h10.1c-.1-.1-.2-.3-.3-.4L63.1 18.5c-.1-.1-.3-.2-.4-.3v9.9c0 .8.6 1.5 1.4 1.5z"/><path d="M64.1 32.3c-2.3 0-4.1-1.9-4.1-4.2V17.3H29.9c-2.3 0-4.1 1.8-4.1 4.1v57.3c0 2.3 1.8 4.1 4.1 4.1h41c2.3 0 4.1-1.8 4.1-4.1V32.3H64.1zm-22.6 9.5c2.6 0 4.8 2.1 4.8 4.8 0 2.6-2.1 4.8-4.8 4.8s-4.8-2.1-4.8-4.8c0-2.6 2.2-4.8 4.8-4.8zm22.6 27.4H34l12.4-15.9 4.2 5.6 13.5-14.3v24.6z"/></symbol><symbol viewBox="0 0 100 100" xml:space="preserve" id="file-media" xmlns="http://www.w3.org/2000/svg"><path d="M64.1 29.5h10.1c-.1-.1-.2-.3-.3-.4L63.1 18.4c-.1-.1-.3-.2-.4-.3v10.1c0 .7.6 1.3 1.4 1.3zM56.8 54.3l-8.2-5.5c-.4-.3-1-.3-1.4-.1-.4.2-.7.7-.7 1.2v10.9c0 .5.3 1 .7 1.2.2.1.4.2.7.2.3 0 .5-.1.8-.2l8.2-5.5c.4-.3.6-.7.6-1.1-.1-.4-.4-.8-.7-1.1z"/><path d="M64.1 32.3c-2.3 0-4.1-1.8-4.1-4.1v-11H29.9c-2.3 0-4.1 1.8-4.1 4.1v57.4c0 2.3 1.8 4.1 4.1 4.1h41c2.3 0 4.1-1.8 4.1-4.1V32.3H64.1zM50.5 70.8c-8.4 0-15.2-6.8-15.2-15.2 0-8.4 6.8-15.2 15.2-15.2 8.4 0 15.2 6.8 15.2 15.2 0 8.4-6.8 15.2-15.2 15.2z"/></symbol><symbol viewBox="0 0 100 100" xml:space="preserve" id="file-up" xmlns="http://www.w3.org/2000/svg"><path d="M66.9 70.2H48.7V45h14L46.2 22.9 29.7 45h14v27.6c0 1.4 1.1 2.5 2.5 2.5h20.7c1.4 0 2.5-1.1 2.5-2.5s-1.1-2.4-2.5-2.4z"/></symbol><symbol viewBox="0 0 100 100" xml:space="preserve" id="file-video" xmlns="http://www.w3.org/2000/svg"><path d="M64.1 29.5h10.1c-.1-.1-.2-.3-.3-.4L63.1 18.4c-.1-.1-.3-.2-.4-.3v10.1c0 .7.6 1.3 1.4 1.3zM56.8 54.3l-8.2-5.5c-.4-.3-1-.3-1.4-.1-.4.2-.7.7-.7 1.2v10.9c0 .5.3 1 .7 1.2.2.1.4.2.7.2.3 0 .5-.1.8-.2l8.2-5.5c.4-.3.6-.7.6-1.1-.1-.4-.4-.8-.7-1.1z"/><path d="M64.1 32.3c-2.3 0-4.1-1.8-4.1-4.1v-11H29.9c-2.3 0-4.1 1.8-4.1 4.1v57.4c0 2.3 1.8 4.1 4.1 4.1h41c2.3 0 4.1-1.8 4.1-4.1V32.3H64.1zM50.5 70.8c-8.4 0-15.2-6.8-15.2-15.2 0-8.4 6.8-15.2 15.2-15.2 8.4 0 15.2 6.8 15.2 15.2 0 8.4-6.8 15.2-15.2 15.2z"/></symbol><symbol viewBox="0 0 50 50" xml:space="preserve" id="input-checkbox" xmlns="http://www.w3.org/2000/svg"><path d="m22.5 37.7-12.2-9.8 3.8-4.6 7.4 5.8 13.9-18.3 4.8 3.6z"/></symbol><symbol viewBox="0 0 50 50" xml:space="preserve" id="input-date" xmlns="http://www.w3.org/2000/svg"><path d="m11.6 25 20.8-12.4v24.8z"/></symbol><symbol viewBox="0 0 40 40" xml:space="preserve" id="input-delete" xmlns="http://www.w3.org/2000/svg"><path d="M23.8 11.5V8.3h-8v3.1H9.2v1.7h1.9l1.4 18.5h14.6l1.4-18.5h2.3v-1.7c0 .1-7 .1-7 .1zM22.1 10v1.4h-4.7V10h4.7zm-8 20-1.3-16.8h14.1L25.6 30H14.1z"/><path d="M18.9 15.6h1.7v12.1h-1.7zM22.048 27.672l.656-12.081 1.697.092-.656 12.082zM15.273 15.553l1.698-.092.654 12.082-1.697.092z"/></symbol><symbol viewBox="0 0 50 50" xml:space="preserve" id="input-radio" xmlns="http://www.w3.org/2000/svg"><circle cx="25" cy="25" r="13.2"/></symbol><symbol viewBox="0 0 50 50" xml:space="preserve" id="input-select" xmlns="http://www.w3.org/2000/svg"><path d="m25 29.9-7.2-9.8h14.4z"/></symbol><symbol viewBox="0 0 50 50" xml:space="preserve" id="input-select-check" xmlns="http://www.w3.org/2000/svg"><path d="M22.1 39.5 8.6 28.7l4.2-5.2 8.1 6.6L36.4 9.8l5.2 4z"/></symbol><symbol viewBox="0 0 50 50" xml:space="preserve" id="slider-button" xmlns="http://www.w3.org/2000/svg"><path d="m33.5 24.7-12.7 13-1.9-1.9 10.7-11.1-10.7-11 1.9-1.9 12.7 12.9z"/></symbol><symbol viewBox="0 0 100 100" id="social-apple" xmlns="http://www.w3.org/2000/svg"><path data-name="" d="M50.9 27c3.2 0 7.2-2.1 9.5-5 2.1-2.6 3.7-6.2 3.7-9.9s0-1-.1-1.4c-3.5.1-7.8 2.4-10.3 5.4-2 2.3-3.9 5.9-3.9 9.5s0 1.1.1 1.3h.9ZM39.7 81.2c4.3 0 6.3-2.9 11.7-2.9s6.7 2.8 11.6 2.8 7.9-4.4 10.9-8.7c3.4-4.9 4.7-9.8 4.8-10-.3 0-9.4-3.8-9.4-14.2s7.2-13.1 7.6-13.4c-4.7-6.8-12-7-13.9-7-5.3 0-9.7 3.2-12.4 3.2s-6.9-3-11.5-3c-8.8 0-17.7 7.3-17.7 21s3.3 17.5 7.4 23.3c3.5 4.9 6.5 9 10.9 9Z"/></symbol></svg>