<?xml version="1.0" encoding="utf-8"?>
<!-- Generator: Adobe Illustrator 25.3.1, SVG Export Plug-In . SVG Version: 6.00 Build 0)  -->
<svg version="1.1" id="Ebene_1" xmlns="http://www.w3.org/2000/svg" xmlns:xlink="http://www.w3.org/1999/xlink" x="0px" y="0px"
	 viewBox="0 0 50 50" style="enable-background:new 0 0 50 50;" xml:space="preserve">
<g>
	<path d="M25.1,12.4c-3.3,0-6.6,1.4-8.9,3.8l0.1-3.6c0-0.6-0.4-1-1-1.1c0,0,0,0,0,0c-0.6,0-1,0.4-1,1L14,19c0,0.3,0.1,0.6,0.3,0.7
		c0.2,0.2,0.5,0.3,0.8,0.3l6.4-0.1c0.3,0,0.5-0.1,0.7-0.3s0.3-0.5,0.3-0.7c0-0.3-0.1-0.5-0.3-0.7c-0.2-0.2-0.4-0.3-0.7-0.3
		c0,0,0,0,0,0L17.3,18c1.1-1.2,3.9-3.5,7.8-3.5c6.3,0,10.5,5.4,10.5,10.5c0,0.6,0.5,1,1,1c0.6,0,1-0.5,1-1
		C37.6,18.9,32.6,12.4,25.1,12.4z"/>
	<path d="M34.9,29.9l-6.4,0.1c-0.6,0-1,0.5-1,1.1c0,0.6,0.5,1,1,1c0,0,0,0,0,0l4.2-0.1c-1.1,1.2-3.9,3.5-7.8,3.5
		c-6.3,0-10.5-5.4-10.5-10.5c0-0.6-0.5-1-1-1s-1,0.5-1,1c0,6.1,5,12.6,12.6,12.6c3.3,0,6.6-1.4,8.9-3.8l-0.1,3.6
		c0,0.3,0.1,0.5,0.3,0.7c0.2,0.2,0.4,0.3,0.7,0.3c0,0,0,0,0,0c0.6,0,1-0.5,1-1L36,31c0-0.3-0.1-0.6-0.3-0.7
		C35.5,30,35.2,29.9,34.9,29.9z"/>
</g>
</svg>
