<?xml version="1.0" encoding="utf-8"?>
<!-- Generator: Adobe Illustrator 26.3.1, SVG Export Plug-In . SVG Version: 6.00 Build 0)  -->
<svg version="1.1" id="Ebene_1" xmlns="http://www.w3.org/2000/svg" xmlns:xlink="http://www.w3.org/1999/xlink" x="0px" y="0px"
	 viewBox="0 0 100 70" style="enable-background:new 0 0 100 70;" xml:space="preserve">
<style type="text/css">
	.st0{fill:#000066;}
	.st1{fill:#FFFFFF;}
	.st2{fill:#CC0000;}
</style>
<rect id="rect124" x="-20.2" class="st0" width="140.4" height="70"/>
<g id="g584">
	<polygon class="st1" points="120.2,0 104.5,0 61.7,21.3 61.7,0 38.3,0 38.3,21.3 -4.5,0 -20.2,0 -20.2,7.8 10.9,23.3 -20.2,23.3 
		-20.2,46.7 10.9,46.7 -20.2,62.2 -20.2,70 -4.5,70 38.3,48.7 38.3,70 61.7,70 61.7,48.7 104.5,70 120.2,70 120.2,62.2 89.1,46.7 
		120.2,46.7 120.2,23.3 89.1,23.3 120.2,7.8 	"/>
	<polygon class="st2" points="120.2,28 57,28 57,0 43,0 43,28 -20.2,28 -20.2,42 43,42 43,70 57,70 57,42 120.2,42 	"/>
	<path id="path150" class="st2" d="M-20.2,70l46.8-23.3h10.5L-9.7,70H-20.2z M-20.2,0l46.8,23.3H16.1L-20.2,5.2
		C-20.2,5.2-20.2,0-20.2,0z M62.9,23.3L109.7,0h10.5L73.4,23.3H62.9z M120.2,70L73.4,46.7h10.5l36.3,18.1V70z"/>
</g>
</svg>
