<?xml version="1.0" encoding="utf-8"?>
<!-- Generator: Adobe Illustrator 28.1.0, SVG Export Plug-In . SVG Version: 6.00 Build 0)  -->
<svg version="1.1" id="Ebene_1" xmlns="http://www.w3.org/2000/svg" xmlns:xlink="http://www.w3.org/1999/xlink" x="0px" y="0px"
	 width="40px" height="40px" viewBox="0 0 40 40" style="enable-background:new 0 0 40 40;" xml:space="preserve">
<path d="M10.3,30.6c-0.2,0-0.4-0.1-0.6-0.2c-0.2-0.2-0.3-0.5-0.2-0.8l1.8-6.4c0-0.1,0.1-0.2,0.2-0.4l12.4-12.4
	c0.6-0.6,1.4-0.9,2.2-0.9s1.6,0.3,2.2,0.9l1.4,1.4c0.6,0.6,0.9,1.4,0.9,2.2c0,0.8-0.3,1.6-0.9,2.2L17.3,28.5
	c-0.1,0.1-0.2,0.2-0.4,0.2l-6.4,1.8C10.4,30.6,10.3,30.6,10.3,30.6z M11.5,28.5l4.7-1.4l9.8-9.8L22.6,14l-9.8,9.8L11.5,28.5z
	 M27.2,16.2l1.2-1.2c0.3-0.3,0.4-0.6,0.4-1c0-0.4-0.1-0.7-0.4-1l-1.4-1.4c-0.3-0.3-0.6-0.4-1-0.4s-0.7,0.1-1,0.4l-1.2,1.2L27.2,16.2
	z"/>
</svg>
