<?xml version="1.0" encoding="utf-8"?>
<!-- Generator: Adobe Illustrator 28.2.0, SVG Export Plug-In . SVG Version: 6.00 Build 0)  -->
<svg version="1.1" id="Ebene_1" xmlns="http://www.w3.org/2000/svg" xmlns:xlink="http://www.w3.org/1999/xlink" x="0px" y="0px"
	 viewBox="0 0 40 40" style="enable-background:new 0 0 40 40;" xml:space="preserve">
<style type="text/css">
	.st0{fill-rule:evenodd;clip-rule:evenodd;}
</style>
<path class="st0" d="M31,15.4h-1.1v-4.6c0-5.5-4.5-10-10-10c-5.5,0-10,4.5-10,10v4.6H9c-2.5,0-4.4,2-4.4,4.4v14.8
	c0,2.4,2,4.4,4.4,4.4h22c2.4,0,4.4-2,4.4-4.4V19.9C35.4,17.4,33.4,15.4,31,15.4z M13.1,10.9c0-3.8,3-6.8,6.8-6.8
	c3.8,0,6.8,3,6.8,6.8v4.6H13.1V10.9z M32.2,34.7c0,0.7-0.5,1.2-1.2,1.2H9c-0.7,0-1.3-0.5-1.3-1.2V19.9c0-0.7,0.5-1.2,1.3-1.2h22
	c0.7,0,1.2,0.5,1.2,1.2V34.7z"/>
<path class="st0" d="M20,33c-0.9,0-1.6-0.7-1.6-1.6v-1.6c-1.6-0.6-2.7-2.2-2.7-4c0-2.4,1.9-4.3,4.3-4.3c2.4,0,4.3,1.9,4.3,4.3
	c0,1.8-1.1,3.4-2.7,4v1.6C21.6,32.3,20.9,33,20,33L20,33z"/>
</svg>
