<?xml version="1.0" encoding="UTF-8"?>
<svg id="Ebene_1" data-name="Ebene 1" xmlns="http://www.w3.org/2000/svg" version="1.1" viewBox="0 0 100 100">
  <defs>
    <style>
      .cls-1 {
        fill: #000;
        stroke-width: 0px;
      }
    </style>
  </defs>
  <path id="_" data-name="" class="cls-1" d="M50.9,27c3.2,0,7.2-2.1,9.5-5,2.1-2.6,3.7-6.2,3.7-9.9s0-1-.1-1.4c-3.5.1-7.8,2.4-10.3,5.4-2,2.3-3.9,5.9-3.9,9.5s0,1.1.1,1.3c.2,0,.6,0,.9,0ZM39.7,81.2c4.3,0,6.3-2.9,11.7-2.9s6.7,2.8,11.6,2.8,7.9-4.4,10.9-8.7c3.4-4.9,4.7-9.8,4.8-10-.3,0-9.4-3.8-9.4-14.2s7.2-13.1,7.6-13.4c-4.7-6.8-12-7-13.9-7-5.3,0-9.7,3.2-12.4,3.2s-6.9-3-11.5-3c-8.8,0-17.7,7.3-17.7,21s3.3,17.5,7.4,23.3c3.5,4.9,6.5,9,10.9,9Z"/>
</svg>